<?xml version="1.0" encoding="utf-8"?>
<!-- Generator: Adobe Illustrator 24.3.0, SVG Export Plug-In . SVG Version: 6.00 Build 0)  -->
<svg version="1.1" id="Layer_1" xmlns="http://www.w3.org/2000/svg" xmlns:xlink="http://www.w3.org/1999/xlink" x="0px" y="0px"
	 viewBox="0 0 80 80" style="enable-background:new 0 0 80 80;" xml:space="preserve">
<style type="text/css">
	.st0{fill:#414141;}
	.st1{fill:#434343;}
</style>
<g>
	<path class="st0" d="M12.94,51.5c0,5.53-0.01,11.06,0.01,16.59c0,1.43-0.1,2.98,2.09,2.87c1.92-0.1,1.75-1.54,1.76-2.78
		c0.04-4.82-0.14-9.65,0.1-14.46c0.09-1.76-1.51-5,2.01-4.94c3.02,0.05,1.74,3.03,1.81,4.74c0.18,4.53-0.02,9.07,0.1,13.61
		c0.04,1.47-0.85,3.93,1.9,3.84c2.33-0.08,1.64-2.29,1.65-3.7c0.07-10.49,0.04-20.99,0.09-31.48c0.01-1.61-0.64-3.8,1.57-4.34
		c2.14-0.52,3.62,1.36,5.13,2.55c1.3,1.02,0.21,2.43-0.57,2.82c-2.67,1.33-2.2,3.61-2.2,5.81c0,8.93,0.02,17.87-0.02,26.8
		c-0.02,4.76-1.33,5.92-6.19,5.82c-2.39-0.05-4.79-0.03-7.18-0.03c-4.66,0.01-6.14-1.4-6.17-6.03c-0.03-4.82-0.05-9.64,0.04-14.46
		c0.03-2.06-0.35-3.43-2.76-3.91c-3.04-0.6-4.43-2.8-4.43-5.88c0-5.67-0.07-11.34,0.02-17.02c0.07-4.26,2-6.22,6.28-6.3
		c6.1-0.11,12.2-0.21,18.29,0.01c4.76,0.18,7.58,4.14,11,6.71c1.49,1.12-0.81,1.95-1.69,2.56c-0.77,0.55-1.69-0.03-2.29-0.63
		c-7.27-7.36-16.52-3.83-24.98-4.53c-1.8-0.15-2.51,0.98-2.5,2.66c0.01,5.25,0,10.49,0.02,15.74c0,1.15,0.06,2.62,1.47,2.66
		c1.94,0.06,1.47-1.74,1.51-2.88c0.1-3.12,0.03-6.24,0.07-9.36c0.02-1.44,0.08-3.11,2-3.16c1.98-0.05,2.03,1.62,2.03,3.07
		c0.02,5.67,0.01,11.34,0.01,17.02C12.93,51.5,12.93,51.5,12.94,51.5z"/>
	<path class="st0" d="M55.06,28.24c-13.74-0.31-24.66,9.92-25.07,23.48c-0.4,13.32,10.34,24.37,23.96,24.64
		c13.22,0.26,24.16-10.38,24.4-23.73C78.57,39.58,68.02,28.53,55.06,28.24z M39.82,42.97c1.48,0.05,3.78-0.75,3.4,2.18
		c-0.38,2.93-0.02,6.71-5.86,4.99c-0.39-0.26-2.86,1.71-2.91-1.35C34.41,45.05,36.38,42.87,39.82,42.97z M34.52,55.9
		c0.03-1.85,0.18-1.92,4.57-1.88c4.3-1.08,3.66,2.54,4.09,5.15c0.54,3.3-2.01,2.35-3.58,2.4C36.34,61.66,34.47,59.48,34.52,55.9z
		 M39.68,65.91c4.55-1.56,5.29-1.01,5.76,4.23C42.81,69.16,41.12,67.8,39.68,65.91z M39.43,38.98c1.87-2.29,3.62-3.79,6.35-4.58
		C45.27,38.21,44.11,40.56,39.43,38.98z M46.49,47.97c0.5-2.01-0.71-5.08,3.27-5.1c3.26-0.02,2.53,2.19,2.68,4
		c0.14,2.15,0.03,3.98-2.96,3.73C47.69,50.44,45.84,50.58,46.49,47.97z M46.48,56.33c-0.58-2.44,1.33-2.2,2.91-2.35
		c2.92-0.28,3.33,1.4,3.13,3.16c-0.13,2.45,0.38,4.62-2.86,4.51C45.64,61.52,46.96,58.36,46.48,56.33z M51.49,70.61
		c-1.78-0.39-2.25-2.38-2.75-3.97c-0.46-1.45,0.66-1.61,1.72-1.61c2.46,0,1.91,1.92,2.13,3.35C52.36,69.24,52.87,70.92,51.49,70.61z
		 M51.46,39.3c-0.66,0.53-2.52,0.5-2.6-0.34c-0.22-2.29,0.91-4.18,3.32-5.75C52.46,35.63,53.44,37.7,51.46,39.3z M73.85,48.5
		c0.4,1.87-0.08,2.03-4.53,2.03c-4.44,1.24-3.71-2.5-4.05-5.32c-0.36-2.96,1.87-2.09,3.38-2.31C73.04,42.27,73.26,45.72,73.85,48.5z
		 M61.93,47.98c0.6,2.57-1.29,2.44-3.08,2.56c-3.17,0.22-2.84-1.87-2.77-4.35c0.11-1.21-0.57-3.27,2.45-3.3
		C62.46,42.86,61.46,45.96,61.93,47.98z M55.75,33.1c2.96,2.03,3.77,3.79,3.76,5.93c0,0.13-1.69,0.62-2.24,0.32
		C54.74,37.93,56.68,35.87,55.75,33.1z M56.48,71.66c-0.38-2.82-1.26-4.84,0.69-6.41c0.54-0.43,1.98-0.46,2.19,0.43
		C59.9,68.03,58.2,69.41,56.48,71.66z M61.95,56.36c-0.5,1.97,0.74,5.11-3.17,5.28c-3.27,0.14-2.63-2.06-2.74-4.44
		c-0.21-1.71,0.1-3.44,3.01-3.22C60.67,54.11,62.52,54.09,61.95,56.36z M68.68,38.47c-4.38,1.91-4.9,1.56-5.95-3.99
		C65.3,35.09,66.85,36.86,68.68,38.47z M62.87,70.15c0.43-5.15,1-5.59,5.88-4.46C67.31,67.99,65.27,69.17,62.87,70.15z M73.8,56.07
		c-0.38,2.8-0.77,6.26-5.19,5.53c-1.42-0.24-3.76,0.88-3.37-2.23c0.37-2.86-0.26-6.51,5.62-4.97C71.27,54.64,74.25,52.75,73.8,56.07
		z"/>
	<path class="st1" d="M17.66,3.63c-4.35,0-7.76,3.35-7.87,7.72c-0.11,4.26,3.33,7.78,7.68,7.86c4.55,0.08,8.19-3.47,8.08-7.88
		C25.45,7,22,3.64,17.66,3.63z M17.79,15.16c-2.31,0.04-3.83-1.38-3.84-3.65c-0.01-2.22,1.31-3.66,3.77-3.69
		c2.31,0.23,3.69,1.43,3.59,3.83C21.21,13.79,19.91,15.12,17.79,15.16z"/>
</g>
</svg>
