<?xml version="1.0" encoding="utf-8"?>
<!-- Generator: Adobe Illustrator 24.3.0, SVG Export Plug-In . SVG Version: 6.00 Build 0)  -->
<svg version="1.1" id="Layer_1" xmlns="http://www.w3.org/2000/svg" xmlns:xlink="http://www.w3.org/1999/xlink" x="0px" y="0px"
	 viewBox="0 0 80 80" style="enable-background:new 0 0 80 80;" xml:space="preserve">
<style type="text/css">
	.st0{fill:#424242;}
	.st1{fill:#434343;}
</style>
<g>
	<path class="st0" d="M76.25,40.49c0,9.98,0.04,19.96-0.02,29.94c-0.02,4.85-4.55,7.5-9.02,5.45c-1.23-0.57-1.26-1.5-1.31-2.55
		c-0.07-1.48,0.56-2.43,2.1-2.33c3.18,0.19,3.14-1.89,3.14-4.12c-0.05-18.03-0.18-36.07-0.02-54.1c0.04-4.63-2.81-3.96-5.54-3.88
		c-2.74,0.08-6.43-1.13-5.94,3.97c0.17,1.73,0.04,3.5,0.01,5.25c-0.16,9.02,1.53,8.19-8.52,8.26c-7,0.05-14.02,0.23-21.01-0.06
		c-4.24-0.18-5.46,1.43-5.28,5.47c0.28,6.29,0.21,12.61,0.05,18.9c-0.08,3.11,0.91,4.55,4.18,4.32c2.61-0.18,5.25-0.03,7.88,0
		c1.48,0.02,2.79,0.22,2.85,2.21c0.07,2.14-1.14,2.72-2.95,2.72c-4.55,0-9.1-0.03-13.66,0.03C20.79,60,19.76,59,19.78,56.52
		c0.08-10.5,0.1-21.01,0-31.51c-0.03-3.24,1.73-3.67,4.35-3.65c8.58,0.07,17.17-0.25,25.73,0.11c6.03,0.25,4.48-3.77,4.73-7
		c0.28-3.54-0.11-5.96-4.87-5.71c-7.51,0.4-15.05,0.15-22.58,0.06c-1.89-0.02-4.58,0.82-4.51-2.67c0.06-3.12,2.49-2.39,4.23-2.4
		c14.71-0.06,29.42,0.06,44.12-0.09c3.96-0.04,5.25,1.6,5.21,5.32c-0.11,10.5-0.04,21.01-0.04,31.51
		C76.19,40.49,76.22,40.49,76.25,40.49z"/>
	<path class="st1" d="M3.86,39.8c0-10.33-0.01-20.66,0.02-30.99c0.01-1.87-0.43-4.31,2.04-4.81c2.51-0.51,5.51-1.13,7.64,0.39
		c1.56,1.11,1.6,4.01-1.01,4.28c-3.17,0.33-3.59,1.78-3.58,4.4c0.07,17.86,0.09,35.72,0,53.58c-0.01,3.03,0.78,4.41,4.12,4.36
		c10.33-0.17,20.66-0.14,30.99-0.03c2.81,0.03,4.17-0.69,4.1-3.78c-0.16-6.83-0.17-13.66-0.02-20.48c0.07-3.06-1.22-4-4.06-3.87
		c-2.97,0.14-5.95,0-8.93-0.01c-1.73-0.01-3.18-0.34-3.09-2.56c0.08-1.93,1.45-2.2,2.91-2.2c8.93-0.02,17.86-0.01,26.79-0.01
		c1.74,0,3.14,0.33,3.03,2.58c-0.09,1.96-1.43,2.05-2.89,2.22c-2.73,0.31-6.26-1.26-8.01,1.02c-1.74,2.27-0.54,5.76-0.61,8.71
		c-0.1,4.38-0.03,8.75-0.02,13.13c0.01,2.56-0.68,5.51,3.58,5.36c1.72-0.06,1.65,1.42,1.62,2.68c-0.06,1.87-1.24,2.3-2.82,2.3
		c-3.68,0-7.35,0.02-11.03,0.02c-11.38,0-22.77-0.27-34.14,0.1c-5.46,0.18-6.93-1.79-6.74-6.98C4.11,59.42,3.85,49.6,3.86,39.8z"/>
</g>
</svg>
