<?xml version="1.0" encoding="utf-8"?>
<!-- Generator: Adobe Illustrator 24.3.0, SVG Export Plug-In . SVG Version: 6.00 Build 0)  -->
<svg version="1.1" id="Layer_1" xmlns="http://www.w3.org/2000/svg" xmlns:xlink="http://www.w3.org/1999/xlink" x="0px" y="0px"
	 viewBox="0 0 80 80" style="enable-background:new 0 0 80 80;" xml:space="preserve">
<style type="text/css">
	.st0{fill:#424242;}
</style>
<path class="st0" d="M74.94,48.23c-3.99-2.98-8-5.93-12.13-8.68c-2.87-1.91-5.57-0.96-5.32,2.46c0.4,5.51-1.59,7.87-6.97,7.81
	c-0.92-0.01-1.95,0.32-2.75,0.81c-4.04,2.48-4.34,0.23-4.27-3.09c0.12-6.42,0.34-12.86-0.06-19.26c-0.32-4.99,0.77-7.37,6.4-6.95
	c4.37,0.33,5.51-2.09,3.11-5.7c-2.67-4-5.52-7.9-8.43-11.73C42.37,1.09,40,1.07,37.85,3.98c-2.38,3.23-4.71,6.49-7,9.79
	c-1.23,1.78-3.46,3.38-2.16,5.92c1.29,2.52,3.92,1.6,6.07,1.81c1.79,0.18,4.17-0.55,4.18,2.52c0.02,6.36,0.01,12.72,0.01,20.26
	c-3.84-3.85-6.64-7.15-10.75-7.69c-5.02-0.66-5.98-3.23-5.76-7.73c0.21-4.22-2.35-5.39-5.92-2.98c-3.85,2.6-7.59,5.39-11.31,8.18
	c-3.06,2.3-3.01,4.74,0.04,7.02c3.21,2.4,6.47,4.75,9.75,7.06c1.67,1.17,3.28,2.94,5.6,1.95c2.74-1.17,2.09-3.84,1.9-5.92
	c-0.46-4.8,1.99-4.7,5.13-3.25c7.54,3.46,10.62,9.99,11.22,17.75c0.42,5.43,0.07,10.91,0.12,16.37c0.01,1.42-0.11,3.02,2.03,3.15
	c1.96,0.12,2.5-1.03,2.52-2.69c0.04-4.01,0-8.03,0.12-12.04c0.09-3.18,1.04-6.02,3.95-7.81c2.67-1.64,5.81-3.01,8.63-1.83
	c2.25,0.94,0.82,4.06,1.03,6.19c0.42,4.34,2.42,5.6,5.92,3.28c4.01-2.66,7.88-5.54,11.73-8.42C77.71,52.77,77.83,50.38,74.94,48.23z
	 M16.81,43.86c-0.72,0.33-8.11-5.68-8.09-6.32c0.02-0.76,7.48-6.59,8.2-6.18c2.68,1.53,0.73,4.26,1.59,6.35
	C17.64,39.71,19.79,42.5,16.81,43.86z M41.45,17.42c-2.33-0.62-5.34,1.05-6.34-1.1c-0.78-1.66,1.81-3.45,2.98-5.11
	c3.15-4.47,3.24-4.48,6.41,0.12c1.14,1.66,3.77,3.38,2.88,5.11C46.29,18.51,43.29,16.61,41.45,17.42z M63.08,57.75
	c-1.29-0.02-1.3-0.07-1.28-6.71c0.81-1.57-1.47-5.59,1.5-5.32c2.85,0.26,5.8,3.05,7.86,5.75C71.54,51.96,64.05,57.77,63.08,57.75z"
	/>
</svg>
