<?xml version="1.0" encoding="utf-8"?>
<!-- Generator: Adobe Illustrator 24.3.0, SVG Export Plug-In . SVG Version: 6.00 Build 0)  -->
<svg version="1.1" id="Layer_1" xmlns="http://www.w3.org/2000/svg" xmlns:xlink="http://www.w3.org/1999/xlink" x="0px" y="0px"
	 viewBox="0 0 80 80" style="enable-background:new 0 0 80 80;" xml:space="preserve">
<style type="text/css">
	.st0{fill:#444444;}
	.st1{fill:#414141;}
</style>
<g>
	<path class="st0" d="M24.45,1.95c-4.83-0.04-8.8,4.13-8.62,9.05c0.17,4.76,4.09,8.53,8.73,8.42c4.64-0.12,8.46-4.09,8.42-8.76
		C32.94,5.91,29.09,1.98,24.45,1.95z M24.11,14.71c-2.65-0.14-3.86-1.93-3.73-4.43c0.13-2.4,1.77-3.71,4.03-3.67
		c2.53,0.04,3.94,1.58,3.98,4.38C28.13,13.39,26.69,14.85,24.11,14.71z"/>
	<path class="st1" d="M72.15,46.62C68,37.84,58.06,32.78,48.55,34.61c-5.38,1.03-5.38,1.03-5.46-4.6c-0.08-5.69-1.79-8-6.68-8.11
		c-8.08-0.19-16.17-0.17-24.26-0.05c-4.06,0.06-6.34,2.39-6.39,6.49C5.68,34.72,5.74,41.1,5.75,47.47c0.01,2.7,0.96,5.54,3.56,5.95
		c4.74,0.74,4.41,3.77,4.32,7.06c-0.07,2.33-0.02,4.67-0.02,7c-0.04,10.36-0.04,10.36,10.28,10.01c0.61-0.02,1.23,0.12,1.84,0.21
		c7.22,1.05,8.61,0.11,9.87-7.25c1.48,1.24,2.51,2.16,3.61,3c7.93,6.03,19.18,5.91,26.85-0.27C74.01,66.76,76.52,55.84,72.15,46.62z
		 M35.02,41.82c0-2.94,0.03-4.93-0.01-6.93c-0.03-1.39-0.48-2.39-2.18-2.35c-1.72,0.04-2.03,1.11-2.06,2.47
		c-0.03,1.25-0.05,2.49-0.05,3.74c0,10.43,0.02,20.87-0.03,31.3c-0.01,1.44,0.41,3.44-1.99,3.47c-2.49,0.03-1.92-2.03-1.94-3.44
		c-0.08-5.14,0-10.28-0.04-15.42c-0.01-1.53,0.11-3.28-2.23-3.31c-2.5-0.03-2.07,1.89-2.09,3.32c-0.06,5.14,0.01,10.28-0.02,15.42
		c-0.01,1.52,0.19,3.36-2.15,3.37c-2.36,0.01-2.14-1.9-2.15-3.38c-0.05-11.06,0.03-22.11-0.09-33.17c-0.02-1.56,1.19-4.17-1.91-4.32
		c-3.46-0.17-2.3,2.67-2.4,4.4c-0.19,3.26-0.05,6.54-0.12,9.81c-0.02,1.04,0.04,2.4-1.47,2.47c-1.44,0.07-1.73-1.11-1.74-2.25
		c-0.03-6.07-0.05-12.15-0.03-18.22c0.01-2.07,1.45-2.57,3.16-2.57c7.32-0.01,14.64-0.02,21.96,0.05c0.87,0.01,1.98,0.3,2.55,0.88
		C39.81,29.04,38.18,39.26,35.02,41.82z M56.93,67.15c-1,0.73-2.07,1.23-2.6,2.51c-0.42,1.01-1.87,1.33-2.23,0.5
		c-1.1-2.47-3.75-2.5-5.42-3.98c-0.89-0.79-2.22-1.54-0.98-3.01c0.9-1.07,1.79-2.27,3.44-0.91c0.7,0.58,1.58,1.01,2.44,1.32
		c1.47,0.52,2.87,0.22,3.58-1.24c0.73-1.49,0.06-2.73-1.3-3.54c-1.86-1.12-3.93-1.95-5.59-3.3c-3.61-2.94-3.26-7.13,0.62-9.67
		c0.76-0.5,1.83-0.77,2.27-1.45c1.61-2.54,2.61-2.16,3.81,0.33c0.41,0.85,1.66,1.28,2.5,1.94c0.83,0.65,2.04,1.3,1.07,2.57
		c-0.8,1.06-1.63,2.43-3.4,1.32c-0.77-0.48-1.66-0.76-2.23-1.01c-1.17,0.05-1.87,0.36-2.13,1.21c-0.26,0.86,0.17,1.55,0.88,1.94
		c1.5,0.81,3.1,1.45,4.57,2.3C61.26,57.89,61.6,63.76,56.93,67.15z"/>
</g>
</svg>
