<?xml version="1.0" encoding="utf-8"?>
<!-- Generator: Adobe Illustrator 24.3.0, SVG Export Plug-In . SVG Version: 6.00 Build 0)  -->
<svg version="1.1" id="Layer_1" xmlns="http://www.w3.org/2000/svg" xmlns:xlink="http://www.w3.org/1999/xlink" x="0px" y="0px"
	 viewBox="0 0 80 80" style="enable-background:new 0 0 80 80;" xml:space="preserve">
<style type="text/css">
	.st0{fill:#34333B;}
	.st1{fill:#3A3A3F;}
</style>
<g>
	<path class="st0" d="M77.71,48.59c-1.98-1.7-4.76-1.33-6.54,0.9c-0.51,0.63-0.68,1.38-1.81,1.54c-6.76,0.99-7.5,0.41-7.48-6.37
		c0-0.87-0.04-1.74,0.03-2.6c0.04-0.5,0.12-1.15,0.45-1.45c1.09-1.01,7.81,0.06,8.91,1.34c1.92,2.22,4.61,2.5,6.54,0.67
		c1.82-1.72,1.82-4.68,0-6.38c-1.96-1.83-4.66-1.55-6.56,0.66c-0.47,0.54-0.49,1.6-1.42,1.6c-2.48,0.01-5.2,0.53-7.35-0.34
		c-1.49-0.61-0.33-3.36-0.62-5.13c-0.37-2.31,0.59-3.08,2.85-2.82c2.36,0.28,4.79,0.43,4.06-3.28c-0.23-1.18,1-1.23,1.61-1.74
		c2.22-1.85,2.5-4.6,0.67-6.55c-1.76-1.87-4.58-1.88-6.35-0.02c-1.84,1.94-1.62,4.66,0.66,6.51c0.86,0.69,1.96,1.18,1.45,2.5
		c-0.55,1.41-1.88,0.56-2.85,0.74c-1.79,0.33-2.22-0.62-2.11-2.23c0.11-1.51-0.12-3.05,0.05-4.55c0.3-2.62-0.53-3.87-3.35-3.52
		c-0.81,0.1-2.45,0.53-2.33-0.86c0.28-3.07-1.74-6.59,2-9.11c1.97-1.33,1.67-4.37-0.04-6.06c-1.67-1.64-4.5-1.63-6.16,0.03
		c-1.66,1.66-1.92,4.82,0.05,6.07c3.87,2.46,1.66,6.01,2.07,9.05c0.16,1.21-1.27,0.99-2.01,0.89c-2.8-0.37-5.98,1.28-8.32-0.83
		C42.44,16.02,44,9.9,45.49,8.5c1.98-1.86,2.12-4.51,0.35-6.35c-1.74-1.8-4.69-1.78-6.38,0.05c-1.73,1.87-1.71,4.83,0.52,6.26
		c1.7,1.09,1.86,2.31,1.84,4c-0.07,5.86-0.03,5.74-5.93,5.72c-2.14-0.01-2.56-0.8-2.43-2.66c0.17-2.36,0.58-5.05-3.36-4.33
		c-0.99,0.18-1.1-0.85-1.55-1.41c-1.99-2.44-4.74-2.75-6.74-0.79c-1.74,1.71-1.78,4.37-0.09,6.12c1.98,2.05,4.76,1.88,6.73-0.57
		c0.71-0.89,1.33-2,2.51-1.32c1.36,0.79,0.52,2.33,0.64,3.54c0.15,1.53-1.02,1.35-1.98,1.35c-3.04,0.01-6.07,0.08-9.1-0.02
		c-1.84-0.06-2.56,0.64-2.42,2.47c0.11,1.51,0.04,3.03,0.01,4.55c-0.01,0.62,0.16,1.31-0.46,1.79c-1.07,0.82-7.85-0.02-8.77-1.09
		c-2.09-2.43-4.75-2.79-6.73-0.9c-1.79,1.71-1.76,4.74,0.06,6.4c1.98,1.8,4.8,1.37,6.76-1.04c0.91-1.11,7.65-1.97,8.68-1.05
		c0.27,0.24,0.43,0.74,0.44,1.13c0.04,2.6,0.02,5.2,0.02,7.8c0,0.55-0.09,1.03-0.67,1.33c-1.6,0.84-7.58-0.3-8.89-1.72
		c-1.38-1.5-3.02-2.1-4.97-1.31c-1.78,0.72-2.71,2.09-2.74,4.03c-0.03,1.94,0.87,3.35,2.67,4.05c2.06,0.8,3.8,0.23,5.21-1.46
		c1.16-1.4,7.89-2.7,8.77-1.43c1.48,2.15,0.62,4.81,0.48,7.22c-0.09,1.57-1.76,0.8-2.68,0.8c-2.34,0.01-4.84-0.46-4.08,3.33
		c0.23,1.15-0.97,1.26-1.6,1.77c-2.22,1.83-2.52,4.63-0.71,6.55c1.72,1.83,4.65,1.84,6.38,0.02c1.85-1.94,1.64-4.66-0.64-6.52
		c-0.85-0.69-1.95-1.13-1.47-2.49c0.46-1.32,1.66-0.59,2.52-0.75c2.1-0.4,2.63,0.65,2.46,2.55c-0.14,1.51,0.09,3.05-0.06,4.55
		c-0.23,2.34,0.5,3.51,3.04,3.2c0.8-0.1,1.78-0.35,2.47,0.34c1.01,0.99,0.08,7.92-1.15,8.98c-2.28,1.95-2.62,4.55-0.85,6.5
		c1.67,1.84,4.67,1.93,6.39,0.19c1.9-1.92,1.7-5.1-0.85-6.69c-1.78-1.11-1.35-2.5-1.37-3.9c-0.05-5.46-0.03-5.46,5.43-5.45
		c1.19,0,2.39,0.04,3.58,0c1.07-0.04,1.7,0.38,1.57,1.5c-0.37,2.99,1.26,6.3-2.28,8.76c-1.99,1.38-1.58,3.9,0.15,5.75
		c1.63,1.75,4.49,1.78,6.12,0.07c1.73-1.82,2.23-4.4,0.26-5.75c-3.41-2.32-2.12-5.44-2.42-8.35c-0.17-1.63,0.65-2.09,2.11-2
		c0.97,0.06,1.97,0.14,2.92-0.01c2.76-0.44,3.73,0.71,3.29,3.38c-0.4,2.43,0.16,4.06,3.16,3.55c1.32-0.22,1.41,1.12,2.01,1.79
		c1.82,2.01,4.46,2.26,6.35,0.58c1.89-1.7,1.97-4.57,0.18-6.36c-1.82-1.81-4.51-1.75-6.34,0.23c-0.83,0.9-1.31,2.63-2.94,1.71
		c-1.22-0.69-0.38-2.17-0.55-3.29c-0.22-1.39,0.64-1.6,1.78-1.57c1.95,0.05,3.9,0.01,5.85,0.01c5.83,0.01,5.8,0.02,5.89-5.81
		c0.02-1.02-0.52-2.25,0.53-3.03c1.25-0.94,7.78,0.22,8.91,1.5c1.93,2.17,4.66,2.37,6.55,0.46C79.65,53.18,79.57,50.19,77.71,48.59z
		 M75.09,36.91c1.46,0.13,2.34,1.16,2.2,2.69c-0.14,1.48-1.06,2.3-2.63,2.38c-1.39-0.28-2.34-1.04-2.29-2.59
		C72.42,37.68,73.47,36.76,75.09,36.91z M65.35,21.76c-0.05-1.65,0.9-2.61,2.55-2.66c1.56-0.04,2.23,1.03,2.58,2.4
		c-0.19,1.57-1.03,2.68-2.64,2.68C66.44,24.17,65.4,23.26,65.35,21.76z M24.55,14.6c-1.49-0.2-2.27-1.18-2.18-2.66
		c0.09-1.49,1.05-2.39,2.5-2.38c1.65,0.01,2.41,1.15,2.6,2.71C27.04,13.74,26.27,14.84,24.55,14.6z M5.11,30.68
		c-1.46-0.33-2.48-1.08-2.41-2.63c0.08-1.65,1.03-2.61,2.74-2.43c1.53,0.16,2.28,1.17,2.18,2.68C7.53,29.84,6.52,30.54,5.11,30.68z
		 M5.17,43.08c-1.61-0.05-2.63-1.1-2.47-2.79c0.14-1.47,1.12-2.38,2.65-2.27c1.53,0.1,2.23,1.13,2.35,2.42
		C7.52,42.15,6.63,43.12,5.17,43.08z M14.69,58.39c-0.16,1.39-0.87,2.38-2.39,2.46c-1.69,0.09-2.69-0.92-2.71-2.49
		c-0.02-1.6,1.07-2.64,2.68-2.56C13.69,55.87,14.55,56.83,14.69,58.39z M55.05,65.33c1.68-0.01,2.58,0.99,2.57,2.62
		c-0.01,1.51-0.99,2.28-2.46,2.51c-1.55-0.22-2.63-1.09-2.57-2.7C52.63,66.36,53.5,65.33,55.05,65.33z M52.61,5.27
		c-0.04-1.61,0.9-2.67,2.62-2.59c1.51,0.07,2.32,0.98,2.43,2.56c-0.2,1.42-0.96,2.34-2.51,2.37C53.61,7.64,52.65,6.74,52.61,5.27z
		 M40.15,5.06c0.01-1.45,0.98-2.38,2.53-2.39c1.55,0,2.33,0.92,2.58,2.4c-0.18,1.43-0.87,2.46-2.42,2.54
		C41.12,7.7,40.14,6.67,40.15,5.06z M27.47,74.77c-0.22,1.41-0.91,2.48-2.46,2.51c-1.65,0.03-2.68-0.87-2.64-2.58
		c0.04-1.56,1.05-2.35,2.53-2.37C26.46,72.31,27.19,73.34,27.47,74.77z M39.91,74.83c-0.24,1.45-0.97,2.44-2.53,2.46
		c-1.52,0.01-2.52-0.81-2.58-2.33c-0.07-1.69,0.96-2.64,2.62-2.62C38.97,72.34,39.69,73.38,39.91,74.83z M60.06,40.3
		c0,5.74-0.08,11.48,0.04,17.22c0.04,2-0.54,2.58-2.55,2.56c-11.7-0.09-23.39-0.09-35.09,0c-1.99,0.01-2.58-0.53-2.56-2.55
		c0.09-11.7,0.09-23.4,0-35.09c-0.02-2,0.54-2.58,2.55-2.56c11.7,0.09,23.39,0.09,35.09,0c2-0.02,2.61,0.53,2.56,2.55
		C59.97,28.39,60.06,34.35,60.06,40.3z M74.91,54.37c-1.57,0.06-2.46-0.88-2.55-2.33c-0.11-1.67,0.92-2.72,2.54-2.7
		c1.43,0.02,2.34,0.97,2.42,2.56C77.18,53.34,76.47,54.3,74.91,54.37z"/>
	<path class="st1" d="M53.04,48.43c-1.59,0-2.84,0.18-2.83-2.24c0.01-2.41,1.27-2.25,2.86-2.23c0.78,0.01,2.09,0.41,2.14-0.77
		c0.06-1.46-1.35-0.93-2.23-1.06c-1.12-0.17-2.67,0.68-2.74-1.62c-0.06-2.05,0.44-3.02,2.67-2.72c0.85,0.11,2.35,0.44,2.3-0.95
		c-0.05-1.36-1.54-0.87-2.4-0.83c-1.63,0.08-2.53-0.1-2.59-2.17c-0.07-2.28,0.98-2.44,2.72-2.33c0.87,0.05,2.37,0.43,2.32-0.93
		c-0.04-1.24-1.53-0.96-2.43-0.87c-1.9,0.19-2.84-0.32-2.58-2.45c0.11-0.91,0.56-2.56-1.03-2.49c-1.24,0.06-0.82,1.59-0.76,2.47
		c0.12,1.71-0.27,2.5-2.25,2.5c-2,0-2.34-0.84-2.24-2.53c0.05-0.86,0.53-2.33-0.79-2.44c-1.43-0.11-1.04,1.37-1.01,2.23
		c0.07,1.71-0.03,2.77-2.33,2.76c-2.38-0.01-1.93-1.39-2-2.75c-0.05-0.9,0.37-2.35-0.99-2.28c-1.31,0.07-0.78,1.54-0.83,2.43
		c-0.07,1.29,0.26,2.59-1.86,2.56c-1.81-0.02-2.9-0.24-2.63-2.44c0.11-0.92,0.55-2.23-0.93-2.67c-1.12,0.47-0.98,1.45-0.86,2.25
		c0.34,2.29-0.53,3.17-2.82,2.82c-0.81-0.12-2.12-0.25-2.15,0.82c-0.05,1.46,1.39,1.01,2.24,0.99c1.63-0.04,2.82-0.14,2.8,2.25
		c-0.02,2.39-1.25,2.27-2.86,2.25c-0.77-0.01-2.08-0.46-2.15,0.73c-0.09,1.48,1.31,1.01,2.2,1.06c1.33,0.07,2.77-0.44,2.79,1.94
		c0.02,2.16-0.8,2.59-2.66,2.41c-0.88-0.08-2.36-0.36-2.33,0.96c0.03,1.37,1.52,0.79,2.39,0.84c1.27,0.08,2.54-0.32,2.6,1.82
		c0.06,2.15-0.59,2.92-2.72,2.66c-0.86-0.11-2.36-0.42-2.32,0.93c0.04,1.24,1.53,1.01,2.42,0.88c2.3-0.34,2.76,0.77,2.58,2.75
		c-0.07,0.84-0.43,2.28,1.04,2.19c1.15-0.07,0.78-1.37,0.77-2.16c-0.02-1.58-0.19-2.86,2.23-2.84c2.41,0.02,2.25,1.28,2.23,2.87
		c-0.01,0.79-0.38,2.09,0.79,2.14c1.45,0.06,1.07-1.35,1.04-2.22c-0.06-1.66-0.08-2.82,2.29-2.79c2.3,0.03,2.01,1.29,2.04,2.71
		c0.02,0.88-0.42,2.35,0.98,2.28c1.37-0.06,0.86-1.55,0.82-2.4c-0.07-1.64,0.16-2.5,2.2-2.58c2.35-0.08,2.36,1.1,2.29,2.77
		c-0.03,0.87-0.43,2.3,0.98,2.27c1.08-0.02,0.95-1.33,0.83-2.14c-0.32-2.25,0.47-3.2,2.8-2.85c0.8,0.12,2.1,0.3,2.17-0.79
		C55.33,47.95,53.88,48.42,53.04,48.43z M47.91,47.86c-1.68,1.71-5.15,0.49-7.82,0.49c-2.77,0-6.46,1.26-8.05-0.6
		c-1.36-1.59-0.5-5.16-0.44-7.85c0.06-2.68-1.17-6.15,0.49-7.83c1.66-1.69,5.14-0.49,7.82-0.47c2.77,0.01,6.47-1.27,8.05,0.58
		c1.33,1.56,0.27,5.15,0.27,7.85C48.16,42.7,49.58,46.16,47.91,47.86z"/>
</g>
</svg>
