<?xml version="1.0" encoding="utf-8"?>
<!-- Generator: Adobe Illustrator 24.3.0, SVG Export Plug-In . SVG Version: 6.00 Build 0)  -->
<svg version="1.1" id="Layer_1" xmlns="http://www.w3.org/2000/svg" xmlns:xlink="http://www.w3.org/1999/xlink" x="0px" y="0px"
	 viewBox="0 0 80 80" style="enable-background:new 0 0 80 80;" xml:space="preserve">
<style type="text/css">
	.st0{fill:#474747;}
</style>
<g>
	<path class="st0" d="M69.02,32.15c0.01,0,0.02,0,0.04,0c0-2.33,0-4.65,0-6.98c0.01-3.61,0.01-7.21,0.05-10.82
		c0.01-1.13-0.35-1.63-1.46-1.65c-2.2-0.04-4.39-0.21-6.56-0.58c-7.6-1.32-14.34-4.43-20.11-9.59c-0.69-0.62-1.23-0.61-1.95,0.03
		c-0.65,0.58-1.29,1.16-1.99,1.69c-7.28,5.51-15.49,8.33-24.62,8.46c-1.11,0.02-1.47,0.36-1.48,1.47c-0.01,1.25-0.01,2.51-0.01,3.76
		c-0.02,10.48-0.04,20.97-0.05,31.45c0,2.25,0.48,4.41,1.42,6.46c1.83,4.02,4.84,7.05,8.17,9.81c5.78,4.78,12.24,8.5,18.78,12.08
		c0.55,0.3,1.04,0.24,1.59-0.05c4.53-2.47,8.99-5.05,13.22-8.01c3.69-2.59,7.23-5.36,10.16-8.83c3.16-3.74,4.96-7.93,4.82-12.96
		C68.9,42.64,69.02,37.39,69.02,32.15z M66.77,16.6c-0.02,10.72-0.07,21.43-0.04,32.15c0.01,3.48-1.12,6.5-3.18,9.23
		c-3.04,4.04-6.94,7.13-11.05,9.98c-3.84,2.67-7.88,5.02-11.98,7.27c-0.34,0.19-0.6,0.24-0.98,0.04c-5.24-2.88-10.4-5.89-15.19-9.48
		c-3.36-2.53-6.51-5.28-8.86-8.83c-1.6-2.42-2.32-5.08-2.31-7.97c0.01-5.24,0-10.49,0-15.73c0.02,0,0.04,0,0.06,0
		c0-5.83,0.01-11.66-0.01-17.49c0-0.55,0.08-0.78,0.72-0.81c9.13-0.46,17.37-3.41,24.64-8.99c0.48-0.37,0.88-1.09,1.44-1.04
		c0.49,0.05,0.92,0.66,1.39,1.02c7,5.37,14.91,8.36,23.71,8.94C66.77,15,66.78,14.99,66.77,16.6z"/>
	<path class="st0" d="M54.48,38.54c-0.02-3.38-2.41-5.78-5.79-5.86c-0.57-0.01-0.66-0.21-0.65-0.71c0.03-1.97,0.02-3.94,0.01-5.91
		c-0.02-3.24-1.49-5.66-4.31-7.15c-5.75-3.05-12.33,1.27-12.17,7.25c0.05,1.97,0.01,3.94,0.02,5.91c0,0.37-0.01,0.58-0.51,0.61
		c-3.77,0.19-5.94,2.5-5.95,6.27c-0.01,5.22-0.01,10.43,0,15.65c0.01,3.68,2.5,6.14,6.18,6.13c2.84-0.01,5.68,0,8.52,0c0,0,0,0,0,0
		c1.46,0,2.92,0,4.37,0c1.46,0,2.92,0.01,4.37,0c3.38-0.02,5.89-2.47,5.91-5.84C54.51,49.43,54.51,43.98,54.48,38.54z M38.67,20.29
		c3.09-0.58,6.23,1.36,6.94,4.36c0.1,0.42,0.13,0.86,0.13,1.29c0.01,2.02-0.01,4.04,0.02,6.05c0.01,0.52-0.12,0.7-0.67,0.69
		c-1.79-0.04-3.57-0.01-5.36-0.01c0,0,0,0,0,0c-1.74,0-3.47-0.03-5.21,0.01c-0.56,0.01-0.66-0.17-0.66-0.68
		c0.03-1.94,0.09-3.89-0.01-5.82C33.71,23.11,36.23,20.75,38.67,20.29z M52.18,54.69c-0.01,2.36-1.36,3.71-3.72,3.71
		c-5.78,0.01-11.56,0.01-17.34,0.01c-2.26,0-3.67-1.43-3.68-3.7c-0.01-5.42-0.01-10.84,0-16.27c0-1.95,1.48-3.46,3.43-3.48
		c2.99-0.02,5.98-0.01,8.98-0.01c2.89,0,5.78-0.01,8.67,0c2.23,0.01,3.67,1.41,3.67,3.62C52.19,43.95,52.19,49.32,52.18,54.69z"/>
	<path class="st0" d="M43.37,43.35c-0.36-1.53-1.61-2.63-3.11-2.73c-1.52-0.1-2.91,0.77-3.45,2.16c-0.54,1.38-0.23,3.13,1,3.84
		c1.04,0.6,1.09,1.37,1.03,2.32c-0.02,0.25,0,0.51,0,0.77c0,0.64-0.02,1.28,0.01,1.91c0.03,0.82,0.51,1.32,1.2,1.29
		c0.65-0.03,1.08-0.52,1.09-1.31c0.02-1.17,0.04-2.35-0.01-3.52c-0.02-0.56,0.17-0.86,0.66-1.12C43.02,46.28,43.68,44.7,43.37,43.35
		z M39.94,45.21c-0.6-0.02-1.1-0.55-1.1-1.15c0-0.65,0.51-1.14,1.17-1.14c0.68,0,1.13,0.48,1.12,1.16
		C41.11,44.74,40.59,45.23,39.94,45.21z"/>
</g>
</svg>
