<?xml version="1.0" encoding="utf-8"?>
<!-- Generator: Adobe Illustrator 24.3.0, SVG Export Plug-In . SVG Version: 6.00 Build 0)  -->
<svg version="1.1" id="Layer_1" xmlns="http://www.w3.org/2000/svg" xmlns:xlink="http://www.w3.org/1999/xlink" x="0px" y="0px"
	 viewBox="0 0 80 80" style="enable-background:new 0 0 80 80;" xml:space="preserve">
<style type="text/css">
	.st0{fill:#474747;}
</style>
<g>
	<path class="st0" d="M39.93,76.58c-11.72,0-23.44,0-35.16,0c-0.97,0-1.35-0.38-1.35-1.37c0-12.29-0.03-24.58,0.02-36.87
		c0.01-1.87,0.39-3.75,0.64-5.62c0.99-7.28,2.01-14.56,3.01-21.84c0.29-2.11,0.58-4.22,0.87-6.34c0.11-0.79,0.5-1.13,1.32-1.13
		c7.82,0,15.64,0,23.46,0c9.36,0,18.73,0,28.09,0c3.29,0,6.58,0,9.87,0c0.81,0,1.21,0.34,1.32,1.13c0.82,5.99,1.64,11.99,2.46,17.98
		c0.67,4.85,1.39,9.69,2,14.54c0.19,1.52,0.09,3.08,0.09,4.62c0,9.47,0,18.93,0,28.4c0,1.71,0,3.41,0,5.12
		c0,0.98-0.38,1.37-1.36,1.37C63.45,76.58,51.69,76.58,39.93,76.58z M74.14,36.6c-0.03-0.27-0.05-0.45-0.08-0.63
		c-0.58-4.2-1.17-8.41-1.75-12.61c-0.79-5.71-1.57-11.43-2.34-17.14c-0.06-0.44-0.23-0.56-0.66-0.56c-6.12,0.01-12.23,0-18.35,0
		c-7.31,0-14.63,0-21.94,0c-6.14,0-12.27,0.01-18.41,0c-0.41,0-0.57,0.13-0.62,0.54c-0.19,1.49-0.41,2.98-0.61,4.47
		C8.34,18.24,7.3,25.82,6.25,33.41c-0.14,1.04-0.27,2.08-0.42,3.19c0.34,0,0.6,0,0.85,0c2.15,0,4.31-0.01,6.46-0.01
		c1.36,0,1.65,0.29,1.65,1.64c0,6.83,0.02,13.65,0,20.48c0,0.63,0.18,0.77,0.78,0.77c4.23-0.02,8.45-0.01,12.68,0
		c1.07,0,1.41,0.37,1.41,1.43c0,0.91,0,1.83,0.01,2.74c0.01,1.13,0.38,1.51,1.49,1.52c1.73,0.01,3.45,0.01,5.18,0.01
		c4.19,0,8.37,0,12.56-0.01c1,0,1.38-0.41,1.38-1.43c0.01-0.98,0-1.95,0.01-2.93c0.01-0.94,0.39-1.34,1.33-1.34
		c3.05-0.01,6.09-0.01,9.14-0.01c1.44,0,2.88,0,4.39,0c0-0.3,0-0.52,0-0.74c0-6.4,0-12.8,0-19.2c0-0.57,0-1.14,0.02-1.71
		c0.03-0.83,0.43-1.22,1.26-1.24c0.55-0.01,1.1,0,1.65,0C70.07,36.6,72.06,36.6,74.14,36.6z M67.42,38.87c0,0.33,0,0.59,0,0.85
		c0,6.87,0,13.73,0,20.6c0,1.02-0.37,1.39-1.4,1.39c-1.81,0-3.62,0-5.42,0c-2.5,0-5,0.01-7.5,0c-0.43,0-0.57,0.13-0.55,0.56
		c0.03,0.63,0.01,1.26-0.01,1.89c-0.06,1.8-1.49,3.26-3.29,3.27c-6.18,0.02-12.35,0.02-18.53,0c-1.8-0.01-3.23-1.46-3.29-3.26
		c-0.02-0.59-0.05-1.18,0-1.77c0.04-0.53-0.13-0.69-0.68-0.69c-4.23,0.02-8.45,0.01-12.68,0.01c-1.19,0-1.53-0.33-1.53-1.51
		c0-6.85,0-13.69,0-20.54c0-0.25,0-0.51,0-0.78c-2.34,0-4.58,0-6.88,0c0,11.81,0,23.58,0,35.41c22.88,0,45.73,0,68.59,0
		c0-11.83,0-23.62,0-35.43C71.97,38.87,69.74,38.87,67.42,38.87z"/>
	<path class="st0" d="M12.53,32.02c0,0.74,0,1.44,0,2.2c-0.78,0-1.49,0-2.26,0c0-1.19-0.03-2.37,0.01-3.54
		c0.02-0.59,0.52-0.94,1.21-0.95c1.04-0.01,2.07,0,3.11,0c8.94,0,17.87,0.01,26.81,0.01c8.92,0,17.83,0,26.75-0.01
		c1.2,0,1.56,0.35,1.56,1.55c0,0.97,0,1.94,0,2.95c-0.77,0-1.47,0-2.25,0c0-0.72,0-1.44,0-2.21C49.13,32.02,30.86,32.02,12.53,32.02
		z"/>
	<path class="st0" d="M15.96,18.25c0,1.54,0,3.01,0,4.53c-0.77,0-1.47,0-2.23,0c-0.01-0.17-0.04-0.35-0.04-0.52
		c0-1.62-0.01-3.25,0-4.87c0-0.96,0.42-1.39,1.36-1.39c2.52,0,5.04-0.02,7.56,0.03c0.4,0.01,0.79,0.31,1.19,0.48
		c0.02,0.01,0.03,0.03,0.04,0.04c1.03,1.5,2.45,1.8,4.23,1.79c12.17-0.08,24.33-0.04,36.5-0.04c1.47,0,1.72,0.25,1.72,1.75
		c0,0.89,0,1.78,0,2.73c-0.75,0-1.47,0-2.25,0c0-0.72,0-1.42,0-2.19c-0.28-0.02-0.49-0.04-0.71-0.04c-6.34,0-12.67-0.01-19.01-0.01
		c-6.3,0-12.59,0-18.89,0.01c-0.57,0-1.05-0.14-1.38-0.61c-1-1.39-2.31-1.91-4.03-1.72C18.71,18.37,17.36,18.25,15.96,18.25z"/>
	<path class="st0" d="M11.4,27.38c0-0.33,0-0.6,0-0.86c0.01-0.97,0.4-1.37,1.37-1.38c2.94-0.01,5.89-0.01,8.83-0.01
		c5.81,0,11.62-0.01,17.42-0.01c9.36,0,18.72,0.01,28.09,0.02c1.1,0,1.44,0.35,1.44,1.46c0,0.24,0,0.48,0,0.77
		C49.5,27.38,30.5,27.38,11.4,27.38z"/>
	<path class="st0" d="M23.97,10.25c0,0.72,0,1.36,0,2.01c-0.01,1.01-0.4,1.41-1.4,1.42c-2.54,0-5.07,0-7.67,0
		c0-0.52-0.08-1.01,0.02-1.47c0.14-0.64,0.67-0.81,1.27-0.8c1.58,0,3.17,0,4.75,0c0.22,0,0.44,0,0.76,0c0-0.72-0.01-1.38,0-2.05
		c0.01-0.99,0.39-1.38,1.36-1.38c2.52,0,5.04,0.01,7.56,0c0.56,0,0.97,0.2,1.27,0.68c0.48,0.76,1.01,1.48,1.47,2.24
		c0.24,0.41,0.54,0.51,0.99,0.51c8.53-0.01,17.07-0.01,25.6-0.01c0.55,0,1.1-0.01,1.65,0.01c0.82,0.03,1.24,0.44,1.25,1.26
		c0.02,1.07,0,2.14,0,3.25c-0.78,0-1.46,0-2.22,0c0-0.71,0-1.43,0-2.22c-0.28-0.02-0.5-0.04-0.71-0.04
		c-8.76,0-17.51-0.01-26.27,0.02c-0.83,0-1.38-0.26-1.79-0.97c-0.43-0.74-0.92-1.43-1.42-2.13c-0.11-0.16-0.34-0.33-0.52-0.33
		C27.98,10.24,26.03,10.25,23.97,10.25z"/>
	<path class="st0" d="M52,42.34c-2.78,0-5.57,0-8.35,0c-0.95,0-1.35-0.38-1.35-1.31c0-1.38-0.01-2.76-0.01-4.14
		c0-0.94,0.4-1.36,1.32-1.36c5.61-0.01,11.22-0.01,16.82,0c0.84,0,1.26,0.45,1.26,1.3c0.01,1.42,0,2.84-0.01,4.27
		c-0.01,0.86-0.41,1.25-1.29,1.25C57.61,42.34,54.81,42.34,52,42.34C52,42.34,52,42.34,52,42.34z M44.55,37.81
		c0,0.6,0.03,1.13-0.01,1.65c-0.04,0.5,0.13,0.66,0.65,0.66c2.64-0.02,5.28,0,7.91,0c1.93,0,3.86,0,5.78-0.02
		c0.19,0,0.52-0.17,0.53-0.28c0.05-0.66,0.02-1.32,0.02-2C54.45,37.81,49.54,37.81,44.55,37.81z"/>
	<path class="st0" d="M27.44,55.99c-2.54,0-5.08,0-7.62,0c-1.04,0-1.51-0.52-1.34-1.54c0.15-0.86,0.32-1.72,0.6-2.54
		c0.5-1.45,1.36-2.61,2.82-3.27c0.63-0.28,1.22-0.64,1.82-0.98c0.47-0.26,0.92-0.27,1.38,0.03c1.52,0.97,3.06,0.96,4.58,0
		c0.44-0.28,0.87-0.3,1.32-0.05c0.82,0.44,1.7,0.81,2.45,1.35c0.64,0.46,1.26,1.05,1.67,1.72c0.75,1.2,1.11,2.57,1.2,3.98
		c0.05,0.85-0.37,1.29-1.23,1.3C32.55,55.99,30,55.99,27.44,55.99z M20.93,53.7c4.36,0,8.64,0,12.91,0
		c-0.2-2.08-1.61-3.03-3.29-3.72c-0.12-0.05-0.31,0.03-0.45,0.09c-1.79,0.77-3.58,0.79-5.38,0.01c-0.17-0.07-0.42-0.13-0.56-0.06
		c-0.64,0.31-1.3,0.6-1.87,1.02C21.43,51.67,21.14,52.64,20.93,53.7z"/>
	<path class="st0" d="M31.85,39.78c-0.23,1.23-0.41,2.48-0.72,3.69c-0.43,1.7-1.95,2.85-3.65,2.88c-1.77,0.03-3.32-1.06-3.8-2.83
		c-0.32-1.19-0.55-2.42-0.6-3.65c-0.11-2.84,2.01-4.68,4.86-4.32c1.03,0.13,1.96,0.48,2.73,1.21
		C31.55,37.59,31.79,38.62,31.85,39.78z M25.24,39.82c0.2,1.01,0.36,2.03,0.6,3.03c0.18,0.76,0.83,1.24,1.53,1.26
		c0.7,0.02,1.39-0.43,1.57-1.2c0.25-1.12,0.41-2.26,0.54-3.41c0.04-0.31-0.07-0.7-0.25-0.97c-0.46-0.69-1.8-0.93-2.8-0.58
		C25.57,38.24,25.32,38.67,25.24,39.82z"/>
	<path class="st0" d="M51.97,46.93c-2.82,0-5.65,0-8.47,0c-0.52,0-0.99-0.19-1.09-0.69c-0.08-0.37,0.02-0.86,0.23-1.17
		c0.17-0.24,0.63-0.37,0.96-0.38c2.34-0.04,4.67-0.03,7.01-0.03c3.25,0,6.5,0,9.75,0c0.78,0,1.25,0.36,1.33,0.98
		c0.1,0.77-0.41,1.29-1.31,1.29C57.57,46.94,54.77,46.93,51.97,46.93C51.97,46.93,51.97,46.93,51.97,46.93z"/>
	<path class="st0" d="M47.43,56.09c-1.28,0-2.56,0-3.83,0c-0.78,0-1.26-0.41-1.29-1.07c-0.03-0.69,0.44-1.18,1.25-1.18
		c2.6-0.01,5.19-0.01,7.79,0c0.75,0,1.22,0.49,1.2,1.17c-0.02,0.64-0.49,1.08-1.22,1.09C50.03,56.1,48.73,56.1,47.43,56.09z"/>
	<path class="st0" d="M47.4,51.51c-1.26,0-2.52,0-3.77,0c-0.83,0-1.31-0.4-1.32-1.09c-0.02-0.69,0.46-1.14,1.27-1.14
		c2.58-0.01,5.15-0.01,7.73,0c0.77,0,1.24,0.45,1.23,1.12c-0.01,0.68-0.47,1.11-1.25,1.11C50,51.52,48.7,51.51,47.4,51.51
		C47.4,51.51,47.4,51.51,47.4,51.51z"/>
</g>
</svg>
