<?xml version="1.0" encoding="utf-8"?>
<!-- Generator: Adobe Illustrator 24.3.0, SVG Export Plug-In . SVG Version: 6.00 Build 0)  -->
<svg version="1.1" id="Layer_1" xmlns="http://www.w3.org/2000/svg" xmlns:xlink="http://www.w3.org/1999/xlink" x="0px" y="0px"
	 viewBox="0 0 80 80" style="enable-background:new 0 0 80 80;" xml:space="preserve">
<g>
	<path d="M75.66,63.01c0.3-0.06,0.58-0.12,0.87-0.16c0.39-0.06,0.8,0.26,0.93,0.65c0.39,1.23,0.79,2.46,1.19,3.69
		c0.13,0.41,0.06,0.8-0.26,1.09c-0.3,0.28-0.7,0.3-1.06,0.14c-0.4-0.17-0.53-0.57-0.65-0.96c-0.24-0.8-0.51-1.6-0.77-2.43
		c-0.14,0.04-0.27,0.08-0.4,0.13c-1.39,0.45-2.77,0.89-4.16,1.34c-1.72,0.56-3.44,1.12-5.17,1.68c-1.72,0.56-3.45,1.11-5.17,1.66
		c-0.15,0.05-0.29,0.11-0.45,0.14c-0.16,0.04-0.18,0.1-0.13,0.26c0.29,0.85,0.56,1.71,0.84,2.57c0.39,1.2,0.77,2.39,1.16,3.59
		c0.12,0.38-0.01,0.91-0.26,1.12c-0.3,0.25-0.97,0.31-1.15,0.1c-0.22-0.26-0.41-0.55-0.54-0.87c-0.21-0.55-0.37-1.12-0.54-1.68
		c-0.05-0.15-0.11-0.23-0.27-0.2c-0.05,0.01-0.11,0-0.16,0c-13,0-26,0-39,0c-0.11,0-0.23,0-0.36,0c-0.24,0.73-0.48,1.45-0.71,2.17
		c-0.2,0.64-0.8,0.78-1.25,0.67c-0.51-0.13-0.77-0.73-0.6-1.27c0.41-1.26,0.82-2.52,1.22-3.79c0.25-0.78,0.49-1.57,0.75-2.35
		c0.08-0.23-0.01-0.29-0.19-0.35c-1.61-0.51-3.22-1.03-4.83-1.55c-1.36-0.44-2.72-0.88-4.08-1.32c-1.69-0.55-3.38-1.09-5.07-1.64
		c-0.35-0.11-0.72-0.21-1.07-0.33c-0.17-0.06-0.22-0.02-0.28,0.14c-0.27,0.84-0.56,1.68-0.83,2.52c-0.12,0.38-0.33,0.67-0.75,0.73
		c-0.42,0.06-0.77-0.08-1.03-0.42c-0.2-0.27-0.18-0.58-0.09-0.86c0.38-1.2,0.79-2.4,1.19-3.6c0.26-0.77,0.61-0.88,1.43-0.67
		c0.11,0.03,0.23,0.06,0.39,0.1c-0.05-0.35-0.08-0.66-0.13-0.97c-0.13-0.81-0.27-1.63-0.41-2.44c-0.16-0.92-0.33-1.84-0.49-2.77
		c-0.15-0.84-0.31-1.67-0.46-2.51c-0.14-0.78-0.3-1.57-0.43-2.35c-0.11-0.66-0.2-1.32-0.31-1.98c-0.15-0.91-0.17-1.83-0.16-2.75
		c0.02-1.36,0.43-2.6,1.12-3.75c0.54-0.91,1.19-1.74,1.92-2.5c1.15-1.2,2.31-2.4,3.48-3.58c0.87-0.87,1.77-1.71,2.66-2.56
		c0.86-0.83,1.7-1.69,2.6-2.47c0.34-0.3,0.41-0.59,0.4-0.99c-0.01-8.08,0-16.16-0.02-24.24c0-0.55,0.46-1.09,1.07-1.09
		c16.53,0.01,33.07,0.01,49.6,0c0.54,0,1.05,0.45,1.05,1.06c-0.01,8.2-0.01,16.39-0.01,24.59c0,0.19-0.01,0.37,0.21,0.46
		c0.04,0.02,0.06,0.06,0.09,0.09c0.78,0.76,1.55,1.52,2.33,2.27c0.89,0.86,1.79,1.72,2.68,2.58c0.96,0.93,1.94,1.85,2.86,2.82
		c0.99,1.03,1.95,2.09,2.74,3.3c0.6,0.93,1.05,1.93,1.21,3.02c0.1,0.67,0.14,1.37,0.11,2.04c-0.04,0.85-0.17,1.7-0.3,2.54
		c-0.21,1.34-0.45,2.67-0.69,4c-0.18,0.98-0.39,1.95-0.57,2.93c-0.18,0.97-0.33,1.95-0.49,2.93c-0.12,0.71-0.24,1.42-0.36,2.13
		C75.65,62.89,75.66,62.96,75.66,63.01z M59.24,72.9c-0.1-0.31-0.2-0.58-0.28-0.86c-0.25-0.81-0.51-1.62-0.74-2.44
		c-0.1-0.36-0.07-0.79,0.45-1.01c0.47-0.2,0.95-0.37,1.44-0.54c0.29-0.1,0.3-0.11,0.13-0.38c-1.2-1.89-2.41-3.78-3.59-5.68
		c-0.39-0.62-0.74-1.26-1.05-1.92c-0.32-0.69-0.26-1.47-0.32-2.21c-0.08-0.91-0.08-1.82-0.11-2.74c-0.02-0.65-0.04-1.3-0.05-1.95
		c-0.02-0.9-0.03-1.8-0.05-2.69c-0.01-0.59-0.02-1.18-0.06-1.77c-0.02-0.34-0.08-0.69-0.15-1.03c-0.13-0.57-0.31-1.12-0.42-1.69
		c-0.15-0.83-0.3-1.66-0.37-2.5c-0.06-0.81-0.07-1.64,0.01-2.44c0.09-0.84,0.35-1.66,0.84-2.38c0.42-0.61,0.96-1.07,1.64-1.38
		c0.58-0.26,1.2-0.33,1.84-0.33c1.12,0.01,2.05,0.47,2.82,1.23c0.51,0.51,0.85,1.16,1.1,1.85c0.53,1.49,0.67,3.06,0.9,4.61
		c0.1,0.67,0.22,1.33,0.34,2c0.05,0.26,0.13,0.51,0.2,0.77c0.01,0,0.03-0.01,0.04-0.01c0.05-13.12,0.1-26.25,0.15-39.37
		c-15.99,0-31.91,0-47.85,0c0,0.14,0,0.25,0,0.37c0,4-0.03,8,0.01,12c0.03,3.99-0.03,7.99,0.07,11.98
		c0.12,4.91,0.03,9.82,0.03,14.73c0,0.1,0,0.2,0,0.3c0.02,0,0.05,0.01,0.07,0.01c0.09-0.35,0.21-0.69,0.26-1.04
		c0.19-1.17,0.37-2.35,0.53-3.53c0.15-1.04,0.34-2.07,0.74-3.05c0.38-0.93,0.93-1.71,1.81-2.25c0.96-0.58,1.99-0.74,3.07-0.54
		c1.09,0.2,1.91,0.83,2.47,1.77c0.6,0.99,0.82,2.09,0.84,3.22c0.01,0.66-0.03,1.33-0.11,1.99c-0.08,0.72-0.22,1.44-0.36,2.15
		c-0.12,0.57-0.33,1.12-0.41,1.69c-0.1,0.71-0.13,1.43-0.17,2.14c-0.04,0.75-0.04,1.49-0.06,2.24c-0.01,0.52-0.04,1.04-0.05,1.55
		c-0.04,1.2-0.07,2.41-0.11,3.61c-0.01,0.44-0.03,0.88-0.06,1.32c-0.01,0.22-0.04,0.43-0.07,0.65c-0.1,0.7-0.44,1.31-0.8,1.89
		c-1,1.65-2.06,3.26-3.09,4.89c-0.37,0.59-0.72,1.18-1.09,1.8c0.1,0.04,0.17,0.07,0.24,0.09c0.49,0.17,0.99,0.33,1.47,0.53
		c0.4,0.16,0.54,0.47,0.49,0.89c-0.02,0.15-0.04,0.29-0.08,0.43c-0.17,0.56-0.35,1.13-0.52,1.69c-0.14,0.44-0.29,0.88-0.44,1.33
		C33.6,72.9,46.4,72.9,59.24,72.9z M62.31,67.34c0.01,0,0.04,0.01,0.07,0c1.04-0.33,2.08-0.67,3.12-1c1.3-0.42,2.6-0.85,3.91-1.27
		c1.33-0.43,2.65-0.86,3.98-1.3c0.09-0.03,0.2-0.12,0.22-0.2c0.06-0.29,0.07-0.59,0.12-0.88c0.09-0.63,0.19-1.25,0.3-1.88
		c0.16-0.86,0.33-1.72,0.49-2.58c0.18-0.93,0.35-1.86,0.51-2.79c0.12-0.65,0.23-1.3,0.33-1.95c0.12-0.71,0.23-1.42,0.33-2.14
		c0.1-0.68,0.17-1.36,0.25-2.04c0.03-0.27,0.05-0.54,0.06-0.81c0.02-0.61,0.08-1.23,0.02-1.84c-0.04-0.46-0.17-0.92-0.37-1.34
		c-0.47-1.02-1.18-1.88-1.91-2.72c-0.78-0.89-1.58-1.76-2.4-2.62c-0.52-0.55-1.08-1.06-1.63-1.58c-0.58-0.56-1.16-1.13-1.75-1.69
		c-0.47-0.45-0.94-0.91-1.41-1.35c-0.22-0.21-0.45-0.4-0.71-0.63c0,0.15,0,0.25,0,0.36c0,4.73,0,9.47,0,14.2
		c0,0.28-0.06,0.57-0.1,0.85c-0.11,0.76-0.86,1.02-1.47,0.68c-1.17-0.66-2.03-1.62-2.43-2.92c-0.47-1.49-0.56-3.05-0.81-4.58
		c-0.14-0.84-0.31-1.69-0.55-2.51c-0.24-0.81-0.73-1.45-1.56-1.78c-0.78-0.31-1.87,0.02-2.36,0.71c-0.53,0.74-0.62,1.59-0.67,2.45
		c-0.03,0.47,0.03,0.94,0.1,1.41c0.11,0.75,0.24,1.51,0.41,2.25c0.23,0.96,0.5,1.92,0.54,2.91c0.03,0.85,0.08,1.7,0.1,2.55
		c0.03,0.88,0.03,1.76,0.06,2.64c0.01,0.46,0.03,0.93,0.05,1.39c0.04,0.98,0.09,1.96,0.1,2.95c0.01,0.64,0.16,1.23,0.49,1.76
		c1,1.6,2.03,3.2,3.03,4.8C61.31,65.67,61.8,66.51,62.31,67.34z M17.72,67.36c0.18-0.32,0.34-0.64,0.53-0.94
		c1.26-2.02,2.54-4.02,3.79-6.04c0.23-0.37,0.45-0.77,0.57-1.19c0.13-0.46,0.15-0.95,0.18-1.42c0.05-0.77,0.08-1.54,0.11-2.31
		c0.02-0.67,0.04-1.34,0.05-2c0.02-1,0.03-2.01,0.05-3.01c0.01-0.55,0.02-1.11,0.06-1.66c0.03-0.43,0.06-0.85,0.15-1.27
		c0.15-0.71,0.35-1.41,0.52-2.12c0.23-0.98,0.37-1.97,0.39-2.97c0-0.26-0.03-0.52-0.05-0.78c-0.03-0.54-0.17-1.06-0.4-1.55
		c-0.56-1.17-2.07-1.53-3.11-0.77c-0.55,0.4-0.85,0.96-1.06,1.57c-0.41,1.16-0.5,2.39-0.69,3.6c-0.13,0.84-0.25,1.68-0.41,2.52
		c-0.15,0.74-0.31,1.47-0.8,2.09c-0.52,0.66-1.07,1.28-1.81,1.73c-0.49,0.3-1.18,0.13-1.41-0.4c-0.12-0.28-0.21-0.6-0.21-0.9
		c-0.01-4.82-0.01-9.64-0.01-14.47c0-0.1,0-0.2,0-0.33c-0.29,0.26-0.54,0.48-0.79,0.71c-0.62,0.58-1.23,1.15-1.84,1.74
		c-0.57,0.54-1.14,1.08-1.69,1.64c-0.99,1.02-1.98,2.05-2.94,3.1c-0.63,0.69-1.2,1.43-1.79,2.15c-0.85,1.03-1.16,2.24-1.1,3.55
		c0.02,0.39,0.03,0.77,0.05,1.16c0.05,0.67,0.08,1.34,0.17,2.01c0.13,1.03,0.3,2.06,0.47,3.09c0.13,0.82,0.28,1.64,0.43,2.46
		c0.15,0.81,0.31,1.62,0.47,2.42c0.18,0.9,0.36,1.8,0.52,2.71c0.11,0.65,0.2,1.31,0.26,1.96c0.02,0.22,0.08,0.32,0.29,0.38
		c0.92,0.28,1.83,0.58,2.75,0.87c1.76,0.57,3.51,1.14,5.27,1.71C15.69,66.7,16.68,67.03,17.72,67.36z"/>
	<path d="M39.95,2.27c4.13,0,8.26,0.01,12.4-0.01c0.64,0,0.99,0.42,0.99,0.97c0,0.55-0.34,0.97-0.99,0.97
		c-8.24,0.01-16.48,0.01-24.71,0c-0.59,0-1-0.37-1.07-0.93c-0.05-0.38,0.33-1.01,0.89-1.01c0.79,0,1.59,0,2.38,0
		C33.2,2.27,36.58,2.27,39.95,2.27z"/>
	<path d="M14.26,72.49c0-0.84,0.56-1.37,1.42-1.39c0.66-0.01,1.32,0.55,1.31,1.31c-0.01,0.8-0.58,1.42-1.33,1.43
		C14.9,73.85,14.17,73.18,14.26,72.49z"/>
	<path d="M64.41,71.11c0.69-0.11,1.36,0.66,1.35,1.41c-0.01,0.73-0.63,1.33-1.39,1.32c-0.79,0-1.32-0.64-1.35-1.4
		C62.99,71.74,63.63,71.05,64.41,71.11z"/>
	<path d="M55.24,4.21c-0.62-0.06-0.97-0.41-0.96-0.98c0-0.53,0.26-0.93,0.9-0.97c0.71-0.04,1.03,0.45,1.02,0.96
		C56.19,3.83,55.84,4.15,55.24,4.21z"/>
	<path d="M40.1,47.17c-1.27,0-2.5-0.19-3.73-0.49c-0.95-0.23-1.85-0.58-2.73-1c-1.3-0.61-2.48-1.39-3.58-2.31
		c-0.4-0.33-0.79-0.67-1.17-1.01c-0.35-0.31-0.45-0.69-0.4-1.17c0.08-0.77,0.24-1.51,0.52-2.23c0.38-1.01,0.9-1.96,1.61-2.79
		c0.57-0.68,1.21-1.28,1.97-1.76c0.76-0.48,1.57-0.81,2.44-1.02c0.16-0.04,0.37,0,0.53,0.08c0.6,0.29,1.18,0.64,1.78,0.93
		c1.05,0.51,2.17,0.72,3.33,0.61c1.21-0.12,2.31-0.57,3.28-1.28c0.53-0.39,1.05-0.4,1.62-0.21c0.92,0.31,1.73,0.79,2.5,1.38
		c0.97,0.75,1.71,1.69,2.29,2.75c0.48,0.87,0.78,1.81,0.97,2.79c0.07,0.36,0.11,0.72,0.16,1.08c0.05,0.37-0.11,0.67-0.36,0.92
		c-1.09,1.06-2.25,2.03-3.6,2.76c-0.88,0.48-1.78,0.92-2.74,1.2c-0.84,0.24-1.69,0.47-2.55,0.62C41.55,47.13,40.82,47.12,40.1,47.17
		z M33.33,43.43c0-0.17,0-0.27,0-0.36c0-0.95,0-1.89,0-2.84c0-0.16,0.01-0.32,0.06-0.46c0.13-0.46,0.42-0.77,1.19-0.67
		c0.29,0.04,0.71,0.42,0.7,0.89c-0.02,1.37,0,2.74-0.01,4.11c0,0.17,0.04,0.25,0.22,0.32c0.94,0.32,1.89,0.55,2.88,0.69
		c1.01,0.14,2.02,0.14,3.02,0.04c1.1-0.11,2.17-0.36,3.21-0.73c0.17-0.06,0.23-0.13,0.23-0.31c-0.01-1.36,0.01-2.72-0.01-4.08
		c-0.01-0.79,0.75-1.14,1.39-0.85c0.39,0.17,0.55,0.53,0.55,0.94c0.01,0.98,0,1.96,0,2.94c0,0.09,0.01,0.18,0.02,0.32
		c0.11-0.07,0.18-0.11,0.25-0.15c0.8-0.49,1.51-1.08,2.22-1.69c0.13-0.11,0.29-0.22,0.23-0.44c-0.15-0.53-0.29-1.07-0.46-1.59
		c-0.24-0.77-0.64-1.47-1.15-2.09c-0.72-0.87-1.63-1.49-2.69-1.91c-0.14-0.06-0.26-0.07-0.41,0.03c-0.7,0.46-1.46,0.81-2.26,1.05
		c-1.03,0.31-2.08,0.44-3.17,0.35c-0.6-0.05-1.19-0.17-1.76-0.33c-0.84-0.24-1.62-0.61-2.36-1.08c-0.09-0.06-0.25-0.07-0.36-0.03
		c-0.7,0.23-1.32,0.61-1.9,1.06c-0.58,0.45-1.03,1.02-1.42,1.63c-0.54,0.84-0.83,1.79-1.03,2.76c-0.02,0.12,0.04,0.3,0.13,0.39
		c0.32,0.31,0.64,0.62,1,0.89C32.18,42.62,32.74,43,33.33,43.43z"/>
	<path d="M39.91,16.57c1.67,0.02,3.14,0.33,4.49,1.1c0.95,0.54,1.73,1.25,2.25,2.24c0.37,0.7,0.61,1.44,0.6,2.24
		c-0.01,0.63-0.07,1.26-0.1,1.89c0,0.1,0.01,0.23,0.07,0.3c0.53,0.71,0.54,1.51,0.38,2.33c-0.14,0.76-0.5,1.41-0.97,2.02
		c-0.21,0.28-0.26,0.68-0.43,0.99c-0.33,0.59-0.66,1.18-1.05,1.73c-0.54,0.74-1.24,1.34-2.04,1.8c-0.73,0.43-1.51,0.74-2.36,0.84
		c-1.44,0.18-2.74-0.22-3.95-0.96c-0.84-0.51-1.52-1.18-2.1-1.98c-0.5-0.7-0.87-1.45-1.16-2.26c-0.11-0.31-0.38-0.56-0.55-0.85
		c-0.47-0.8-0.71-1.65-0.56-2.6c0.07-0.42,0.2-0.79,0.47-1.13c0.08-0.1,0.03-0.31,0-0.46c-0.21-1.29-0.14-2.54,0.44-3.73
		c0.54-1.12,1.42-1.92,2.51-2.5c0.96-0.51,1.98-0.79,3.04-0.94C39.27,16.58,39.65,16.58,39.91,16.57z M45.73,25.65
		c-0.39-0.14-0.64-0.36-0.75-0.77c-0.1-0.37-0.28-0.73-0.45-1.08c-0.23-0.47-0.73-0.86-1.34-0.68c-0.71,0.2-1.42,0.37-2.14,0.54
		c-0.78,0.18-1.56,0.14-2.33-0.05c-0.56-0.14-1.12-0.31-1.68-0.46c-0.79-0.22-1.2,0.1-1.53,0.7c-0.15,0.28-0.27,0.58-0.36,0.89
		c-0.13,0.45-0.35,0.79-0.82,0.92c-0.02,0.72,0.21,1.31,0.69,1.81c0.08,0.09,0.16,0.19,0.21,0.3c0.21,0.48,0.37,0.99,0.61,1.46
		c0.59,1.18,1.51,2.04,2.7,2.6c0.76,0.35,1.56,0.45,2.38,0.18c0.95-0.31,1.79-0.77,2.47-1.53c0.64-0.72,1.08-1.52,1.36-2.44
		c0.06-0.21,0.18-0.42,0.33-0.58C45.54,26.95,45.77,26.36,45.73,25.65z M45.14,21.55c-0.03-0.07-0.07-0.16-0.1-0.25
		c-0.36-0.99-1.01-1.72-1.95-2.19c-0.82-0.41-1.72-0.55-2.62-0.58c-0.57-0.02-1.13,0.05-1.7,0.1c-0.7,0.06-1.36,0.26-1.98,0.58
		c-0.69,0.35-1.19,0.91-1.56,1.57c-0.13,0.23-0.2,0.5-0.3,0.75c0.09,0.01,0.13-0.01,0.17-0.03c0.44-0.27,0.92-0.46,1.43-0.41
		c0.45,0.05,0.9,0.17,1.34,0.29c0.65,0.18,1.3,0.37,1.98,0.39c0.9,0.03,1.75-0.23,2.6-0.49c0.54-0.17,1.08-0.22,1.63-0.09
		C44.45,21.28,44.79,21.43,45.14,21.55z"/>
	<path d="M39.95,53.83c2.85,0,5.7,0,8.55,0c0.62,0,0.95,0.36,1.02,0.92c0.06,0.52-0.39,1-0.95,1.02c-0.04,0-0.09,0-0.13,0
		c-5.67,0-11.33,0-17,0c-0.56,0-1.01-0.35-1.07-0.9c-0.05-0.47,0.35-1.04,0.97-1.04c2.29,0,4.57,0,6.86,0
		C38.79,53.83,39.37,53.83,39.95,53.83z"/>
	<path d="M39.92,65.31c-2.84,0-5.68,0-8.53,0c-0.49,0-0.79-0.21-0.93-0.67c-0.14-0.44,0.01-0.92,0.39-1.14
		c0.15-0.09,0.35-0.13,0.52-0.13c5.74-0.01,11.47-0.01,17.21,0c0.59,0,1,0.51,0.89,1.1c-0.11,0.61-0.39,0.84-1.01,0.84
		C45.62,65.31,42.77,65.31,39.92,65.31z"/>
	<path d="M35.19,58.6c1.26,0,2.53,0,3.79,0c0.41,0,0.73,0.16,0.89,0.55c0.15,0.37,0.12,0.74-0.12,1.06
		c-0.17,0.22-0.44,0.34-0.73,0.34c-2.56,0-5.12,0-7.68,0c-0.58,0-0.96-0.47-0.93-1.03c0.03-0.53,0.4-0.91,0.94-0.91
		C32.63,58.6,33.91,58.6,35.19,58.6z"/>
	<path d="M44.77,58.6c0.91,0,1.82,0.02,2.73-0.01c0.81-0.02,1.18,0.59,1.02,1.31c-0.07,0.32-0.48,0.64-0.84,0.64
		c-1.96,0-3.92,0.01-5.87,0c-0.52,0-0.9-0.44-0.89-0.99c0.01-0.54,0.39-0.94,0.92-0.95C42.81,58.6,43.79,58.6,44.77,58.6z"/>
</g>
</svg>
