<?xml version="1.0" encoding="utf-8"?>
<!-- Generator: Adobe Illustrator 24.3.0, SVG Export Plug-In . SVG Version: 6.00 Build 0)  -->
<svg version="1.1" id="Layer_1" xmlns="http://www.w3.org/2000/svg" xmlns:xlink="http://www.w3.org/1999/xlink" x="0px" y="0px"
	 viewBox="0 0 80 80" style="enable-background:new 0 0 80 80;" xml:space="preserve">
<style type="text/css">
	.st0{fill:#333333;}
</style>
<g>
	<path class="st0" d="M3.85,55.18c0-2.02,0-4.04,0-6.07c0-0.06,0-0.13,0-0.19c-0.01-0.11,0.04-0.24-0.03-0.33
		c-0.08-0.1-0.21-0.04-0.32-0.05c-1.48-0.12-2.19-1.34-2.19-2.31c0.01-4.51,0.02-9.02,0-13.53c0-1.09,0.86-2.27,2.24-2.32
		c0.08,0,0.15,0,0.23,0c1.85,0,3.69,0,5.54,0c0.46,0,0.36-0.01,0.39,0.35c0.12,1.72,0.4,3.41,0.86,5.07
		c0.66,2.36,1.65,4.57,2.98,6.64c0.88,1.38,1.9,2.66,3.04,3.83c0.18,0.19,0.37,0.38,0.55,0.57c0.06,0.06,0.07,0.12,0.04,0.2
		c-0.3,0.73-0.83,1.22-1.59,1.43c-0.22,0.06-0.44,0.09-0.67,0.08c-0.13,0-0.15,0.03-0.15,0.16c0,0.11,0,0.23,0,0.34
		c0,4.16,0,8.31,0,12.47c0,1.91-0.81,3.41-2.35,4.52c-0.72,0.51-1.53,0.8-2.4,0.92c-1.13,0.15-2.21-0.05-3.21-0.57
		c-1.22-0.63-2.07-1.61-2.57-2.89c-0.26-0.67-0.37-1.38-0.37-2.1C3.85,59.33,3.85,57.26,3.85,55.18z"/>
	<path class="st0" d="M40.14,53.08c0.06,0.1,0.04,0.2,0.04,0.3c0,4.59,0.01,9.19,0,13.78c0,1.21-0.4,2.31-1.1,3.31
		c-0.64,0.92-1.48,1.6-2.49,2.06c-0.74,0.33-1.52,0.51-2.33,0.53c-0.83,0.02-1.63-0.11-2.39-0.41c-1.24-0.49-2.22-1.3-2.94-2.42
		c-0.66-1.03-0.96-2.17-0.96-3.39c0-4.49,0-8.99,0-13.48c0-0.4-0.06-0.42,0.38-0.31c1.14,0.27,2.28,0.47,3.45,0.58
		c1.18,0.12,2.35,0.16,3.53,0.11c0.98-0.04,1.95-0.14,2.92-0.31c0.57-0.1,1.14-0.2,1.7-0.33C39.99,53.08,40.07,53.05,40.14,53.08z"
		/>
	<path class="st0" d="M64.79,51.24c-0.16-0.15-0.25-0.24-0.34-0.32c-1.15-1.14-2.29-2.29-3.44-3.44c-0.35-0.35-0.74-0.63-1.2-0.82
		c-0.48-0.2-0.97-0.25-1.48-0.21c-0.18,0.01-0.3-0.04-0.43-0.16c-1.04-1.05-2.09-2.1-3.14-3.14c-0.03-0.03-0.05-0.06-0.08-0.08
		c-0.08-0.07-0.08-0.14-0.02-0.23c0.17-0.25,0.33-0.5,0.49-0.76c1.39-2.26,2.39-4.69,3-7.27c0.27-1.14,0.46-2.29,0.55-3.45
		c0.02-0.26,0.04-0.52,0.06-0.79c0.01-0.14,0.03-0.16,0.19-0.17c0.06,0,0.13,0,0.19,0c1.92,0,3.84,0,5.76,0
		c0.38,0,0.75,0.05,1.1,0.22c0.86,0.42,1.28,1.12,1.35,2.06c0.01,0.09,0,0.18,0,0.26c0,4.36,0,8.71,0,13.07
		c0,0.42-0.04,0.83-0.23,1.21c-0.41,0.83-1.08,1.26-1.99,1.34c-0.07,0.01-0.15,0-0.23,0c-0.08,0-0.11,0.05-0.11,0.12
		c0,0.1,0,0.2,0,0.3c0,0.63,0,1.26,0,1.88C64.79,50.95,64.79,51.05,64.79,51.24z"/>
	<path class="st0" d="M59.34,16.89c2.96,0.02,5.26,2.28,5.48,5.03c0.12,1.53-0.3,2.88-1.29,4.05c-0.88,1.03-2,1.66-3.34,1.88
		c-0.37,0.06-0.75,0.07-1.13,0.07c-0.28,0-0.29-0.02-0.31-0.29c-0.09-1.24-0.26-2.47-0.52-3.68c-0.44-1.98-1.11-3.88-2-5.7
		c-0.16-0.33-0.17-0.29,0.15-0.49C57.28,17.17,58.27,16.89,59.34,16.89z"/>
	<path class="st0" d="M12.42,17.85c-0.12,0.26-0.24,0.51-0.36,0.75c-0.76,1.6-1.35,3.27-1.75,5c-0.2,0.87-0.36,1.74-0.46,2.63
		c-0.05,0.49-0.1,0.97-0.15,1.46C9.68,27.9,9.69,27.9,9.49,27.9c-1.57,0.02-2.93-0.49-4.05-1.6c-1.15-1.14-1.68-2.53-1.62-4.15
		c0.05-1.39,0.56-2.59,1.53-3.58c0.78-0.81,1.73-1.33,2.83-1.56c1.45-0.31,2.82-0.07,4.08,0.72C12.31,17.76,12.36,17.8,12.42,17.85z
		"/>
	<path class="st0" d="M53.89,57.35c0.14,0.13,0.22,0.21,0.3,0.29c2.68,2.68,5.36,5.36,8.04,8.04c0.33,0.33,0.34,0.29-0.07,0.53
		c-0.95,0.57-1.98,0.85-3.09,0.79c-1.37-0.08-2.56-0.58-3.55-1.54c-0.87-0.85-1.4-1.88-1.59-3.09c-0.05-0.34-0.07-0.67-0.07-1.01
		c0-1.19,0-2.39,0-3.58C53.88,57.66,53.87,57.54,53.89,57.35z"/>
	<path class="st0" d="M78.24,67.16c-0.06-0.06-0.12-0.12-0.19-0.19c-6.07-6.07-12.13-12.13-18.2-18.2
		c-0.06-0.06-0.12-0.12-0.19-0.19c-0.46-0.47-1.19-0.54-1.74-0.24c-0.08,0.04-0.15,0.09-0.21,0.13c-0.12-0.04-0.17-0.13-0.24-0.2
		c-1.64-1.63-3.27-3.27-4.9-4.9c-0.04-0.04-0.07-0.07-0.11-0.11c-0.12-0.13-0.13-0.13-0.02-0.28c0.44-0.59,0.86-1.2,1.25-1.84
		c0.97-1.58,1.73-3.25,2.29-5.02c0.6-1.88,0.95-3.8,1.04-5.76c0.08-1.76-0.01-3.51-0.33-5.25c-0.42-2.26-1.14-4.42-2.2-6.46
		c-1.03-1.98-2.32-3.76-3.86-5.36c-1.69-1.75-3.61-3.19-5.76-4.32c-2.93-1.54-6.05-2.41-9.36-2.6c-1.03-0.06-2.06-0.05-3.08,0.04
		c-1,0.08-2,0.22-2.98,0.43c-2.36,0.51-4.58,1.37-6.68,2.57c-2.02,1.16-3.81,2.6-5.39,4.31c-1.47,1.6-2.68,3.38-3.65,5.32
		c-0.64,1.29-1.14,2.62-1.53,4c-0.3,1.09-0.52,2.2-0.66,3.32c-0.11,0.87-0.15,1.75-0.18,2.63c-0.01,0.33,0.02,0.65,0.02,0.98
		c0.02,0.82,0.09,1.63,0.21,2.44c0.24,1.64,0.64,3.25,1.23,4.8c1.22,3.25,3.07,6.08,5.58,8.48c1.7,1.63,3.61,2.95,5.73,3.98
		c2.83,1.38,5.83,2.15,8.98,2.32c1.63,0.09,3.26-0.01,4.88-0.27c2.22-0.36,4.34-1.05,6.35-2.05c1.22-0.6,2.37-1.32,3.46-2.13
		c0.12-0.09,0.23-0.19,0.36-0.25c0.06,0.06,0.11,0.1,0.15,0.14c1.66,1.66,3.32,3.32,4.98,4.98c0.04,0.04,0.09,0.09,0.13,0.13
		c0.04,0.05,0.07,0.1,0.03,0.17c-0.03,0.05-0.07,0.11-0.1,0.16c-0.3,0.59-0.23,1.14,0.17,1.65c0.08,0.11,0.19,0.2,0.28,0.3
		c6.06,6.06,12.11,12.11,18.17,18.17c0.07,0.07,0.14,0.14,0.21,0.21c0.64,0.57,1.49,0.57,2.1-0.04c1.31-1.3,2.61-2.61,3.92-3.91
		C78.83,68.71,78.84,67.71,78.24,67.16z M34.11,47.99c-10.45-0.08-18.68-8.42-18.68-18.84c-0.02-10.29,8.37-18.9,19.05-18.77
		c10.3,0.12,18.63,8.51,18.56,18.94C52.97,39.64,44.64,48.07,34.11,47.99z"/>
	<g>
		<path class="st0" d="M34.1,32.03c2.1,0,4.19,0,6.29,0c0.52,0,1,0.11,1.43,0.39c0.78,0.51,1.21,1.22,1.22,2.16
			c0.01,2.99,0,5.98,0,8.96c0,0.05,0,0.1,0,0.15c0.01,0.12-0.04,0.19-0.14,0.24c-0.39,0.2-0.77,0.42-1.17,0.61
			c-0.94,0.46-1.91,0.83-2.92,1.1c-0.65,0.18-1.31,0.32-1.99,0.42c-0.67,0.1-1.35,0.14-2.02,0.18c-0.68,0.04-1.35,0-2.03-0.05
			c-0.93-0.07-1.84-0.23-2.74-0.45c-1.64-0.41-3.19-1.06-4.64-1.92c-0.03-0.02-0.06-0.04-0.1-0.06c-0.18-0.07-0.21-0.21-0.21-0.39
			c0-2.88,0-5.75,0-8.63c0-0.59,0.13-1.15,0.49-1.63c0.49-0.67,1.14-1.03,1.97-1.09c0.11-0.01,0.23,0,0.34,0
			C29.96,32.03,32.03,32.03,34.1,32.03z"/>
		<path class="st0" d="M40.25,23.06c0,3.32-2.63,6.17-6.19,6.17c-3.43,0-6.18-2.72-6.16-6.19c0.01-3.54,2.84-6.15,6.16-6.15
			C37.52,16.89,40.24,19.65,40.25,23.06z"/>
	</g>
</g>
</svg>
