<?xml version="1.0" encoding="utf-8"?>
<!-- Generator: Adobe Illustrator 24.3.0, SVG Export Plug-In . SVG Version: 6.00 Build 0)  -->
<svg version="1.1" id="Layer_1" xmlns="http://www.w3.org/2000/svg" xmlns:xlink="http://www.w3.org/1999/xlink" x="0px" y="0px"
	 viewBox="0 0 80 80" style="enable-background:new 0 0 80 80;" xml:space="preserve">
<g>
	<path d="M74.77,53.13c-0.71-0.4-1.5-0.51-2.3-0.4c-0.35,0.05-0.71,0.12-1.04,0.25c-0.64,0.25-1.18,0.66-1.67,1.21
		c-3.34-1.56-6.66-3.11-9.97-4.65c1.37-3.46,1.78-7.01,1.39-10.64c1.09-0.19,2.12-0.37,3.14-0.56c1.37-0.26,2.73-0.51,4.09-0.8
		c0.39-0.08,0.58,0,0.79,0.35c0.7,1.21,1.8,1.85,3.18,1.97c0.75,0.07,1.46-0.13,2.14-0.49c1.37-0.74,2.03-1.9,2.11-3.42
		c0.05-0.98-0.27-1.85-0.87-2.61c-0.82-1.05-1.95-1.5-3.24-1.5c-0.49,0-1,0.14-1.45,0.33c-1.41,0.6-2.2,1.71-2.41,3.22
		c-0.03,0.19-0.09,0.27-0.27,0.29c-0.32,0.05-0.64,0.12-0.96,0.18c-0.85,0.16-1.71,0.33-2.56,0.49c-1.26,0.23-2.53,0.45-3.78,0.7
		c-0.22,0.04-0.25-0.01-0.3-0.2c-0.23-0.82-0.43-1.66-0.75-2.46c-0.43-1.06-0.92-2.09-1.45-3.1c-0.57-1.07-1.26-2.06-2.06-2.98
		c-0.2-0.23-0.4-0.48-0.59-0.72c2.98-2.98,5.93-5.93,8.88-8.88c0.17-0.17,0.28-0.13,0.46-0.04c1.46,0.68,2.89,0.62,4.2-0.35
		c1.33-0.98,1.83-2.36,1.55-3.95c-0.23-1.32-0.98-2.33-2.25-2.89c-1.06-0.47-2.14-0.5-3.21-0.07c-1.1,0.44-1.87,1.24-2.24,2.36
		c-0.16,0.51-0.27,1.08-0.23,1.6c0.06,0.63,0.31,1.25,0.49,1.91c0.02-0.02-0.01,0.01-0.04,0.04c-2.91,2.91-5.82,5.82-8.73,8.73
		c-0.02,0.02-0.05,0.07-0.07,0.07c-0.11,0.01-0.25,0.05-0.33,0c-0.27-0.2-0.54-0.42-0.79-0.64c-0.92-0.83-1.98-1.46-3.06-2.06
		c-1.23-0.68-2.5-1.28-3.86-1.63c-1.16-0.3-2.35-0.53-3.53-0.75c-0.54-0.1-1.1-0.12-1.69-0.18c0-0.12,0-0.24,0-0.36
		c0-3.43,0-6.86-0.01-10.28c0-0.31,0.09-0.42,0.39-0.52c2-0.65,3.01-2.66,2.67-4.51c-0.19-1-0.7-1.84-1.54-2.46
		c-1.4-1.05-3.17-1.08-4.6-0.16c-1.42,0.91-2.16,2.73-1.64,4.46c0.41,1.37,1.31,2.24,2.62,2.71c0.28,0.1,0.34,0.22,0.34,0.48
		c-0.01,3.44,0,6.88,0,10.32c0,0.12,0,0.24,0,0.35c-3.7,0.22-7.1,1.3-10.26,3.19c-1.48-2.12-2.95-4.21-4.4-6.29
		c1.27-1.54,1.48-3.79-0.15-5.49c-1.18-1.23-3.12-1.72-5.02-0.55c-1.56,0.96-2.31,2.93-1.51,4.98c0.31,0.81,0.91,1.42,1.66,1.85
		c1.12,0.64,2.29,0.7,3.49,0.26c1.48,2.11,2.95,4.2,4.42,6.31c-1.42,1.15-2.71,2.4-3.81,3.84c-1.09,1.44-1.96,3-2.7,4.64
		c-0.06-0.01-0.1-0.02-0.14-0.03c-2.08-0.76-4.15-1.53-6.23-2.29c-1.24-0.45-2.49-0.9-3.73-1.35c-0.1-0.04-0.21-0.16-0.22-0.25
		c-0.05-0.28-0.04-0.57-0.08-0.85c-0.17-1.29-0.83-2.27-1.96-2.93c-0.68-0.4-1.42-0.52-2.21-0.49c-1.1,0.05-2.01,0.49-2.75,1.29
		c-0.8,0.87-1.09,1.89-1,3.06c0.08,0.98,0.47,1.81,1.16,2.48c0.62,0.6,1.36,0.99,2.24,1.1c0.93,0.12,1.79-0.01,2.57-0.52
		c0.51-0.34,0.96-0.78,1.47-1.2c0.01,0,0.08,0.05,0.16,0.08c1.99,0.72,3.98,1.44,5.97,2.16c1.3,0.47,2.59,0.93,3.88,1.41
		c0.08,0.03,0.17,0.2,0.16,0.29c-0.16,0.78-0.37,1.54-0.51,2.32c-0.14,0.82-0.28,1.64-0.32,2.46c-0.04,0.96,0,1.92,0.06,2.88
		c0.05,0.78,0.12,1.57,0.27,2.34c0.32,1.63,0.83,3.22,1.52,4.73c0.73,1.6,1.66,3.09,2.8,4.44c0.16,0.19,0.31,0.4,0.45,0.59
		c-0.63,0.7-1.23,1.36-1.81,2.03c-0.75,0.85-1.48,1.7-2.23,2.55c-0.52,0.59-1.05,1.18-1.57,1.78c-0.74,0.84-1.47,1.69-2.2,2.53
		c-0.53,0.6-1.07,1.2-1.59,1.8c-0.71,0.82-1.4,1.66-2.14,2.45c-0.8,0.86-1.42,1.81-1.68,2.97c-0.17,0.77-0.2,1.53-0.01,2.31
		c0.2,0.85,0.56,1.61,1.09,2.3c0.5,0.65,1.12,1.12,1.85,1.47c0.91,0.44,1.87,0.58,2.87,0.53c0.93-0.05,1.77-0.38,2.53-0.88
		c0.74-0.48,1.32-1.13,1.79-1.89c0.87-1.39,1.77-2.76,2.67-4.14c1.5-2.31,3.01-4.61,4.51-6.91c0.85-1.31,1.71-2.62,2.55-3.91
		c0.72,0.29,1.41,0.64,2.15,0.86c1,0.31,2.03,0.57,3.06,0.76c1.05,0.19,2.12,0.33,3.18,0.38c0.91,0.04,1.82-0.06,2.74-0.12
		c0.45-0.03,0.9-0.07,1.33-0.16c0.71-0.14,1.42-0.33,2.12-0.5c1.32-0.34,2.58-0.82,3.79-1.45c0.16-0.08,0.24-0.02,0.31,0.11
		c0.36,0.63,0.71,1.27,1.08,1.9c0.62,1.07,1.25,2.14,1.87,3.22c0.4,0.68,0.79,1.37,1.17,2.05c-1.45,1.51-1.76,3.92-0.21,5.6
		c1.12,1.22,2.89,1.86,4.84,0.88c1.67-0.84,2.57-2.79,1.94-4.84c-0.28-0.91-0.86-1.62-1.66-2.12c-1.02-0.63-2.14-0.71-3.29-0.45
		c-1.42-2.47-2.83-4.91-4.25-7.36c1.5-0.98,2.82-2.09,4.02-3.35c0.25-0.26,0.46-0.56,0.7-0.83c0.84-0.94,1.52-1.99,2.14-3.08
		c0.36-0.63,0.36-0.64,1.01-0.34c1.69,0.78,3.38,1.57,5.06,2.35c1.26,0.59,2.52,1.19,3.79,1.77c0.32,0.15,0.5,0.24,0.46,0.71
		c-0.13,1.54,0.48,2.81,1.76,3.68c0.82,0.56,1.75,0.77,2.77,0.62c0.96-0.14,1.78-0.55,2.42-1.25c0.71-0.79,1.05-1.74,1.01-2.82
		C76.86,55.01,76.11,53.88,74.77,53.13z M72.63,33.68c1.15-0.04,2.21,1,2.16,2.15c0.03,1.27-1.02,2.17-2.07,2.17
		c-1.44-0.01-2.24-1-2.25-2.14C70.46,34.62,71.42,33.72,72.63,33.68z M67.1,12.91c1.11,0.01,2.17,1.09,2.16,2.2
		c-0.01,1.17-0.98,2.13-2.16,2.13c-1.38-0.07-2.09-0.87-2.16-2.14C64.88,13.97,65.99,12.91,67.1,12.91z M22.03,17.25
		c-1.17,0.04-2.2-0.98-2.15-2.15c0.05-1.38,0.99-2.16,2.16-2.15c1.16,0.01,2.12,0.78,2.15,2.2C24.22,16.16,23.32,17.31,22.03,17.25z
		 M7.05,31.55c-1.24,0.01-2.14-1-2.15-2.17c-0.01-1.17,1.02-2.14,2.19-2.14c1.15,0,2.11,0.93,2.14,2.15
		C9.2,30.62,8.31,31.55,7.05,31.55z M57.19,68.16c1.15,0,2.15,0.94,2.15,2.14c0,1.2-0.97,2.19-2.18,2.19c-1.15,0-2.17-1-2.15-2.14
		C55.04,69.13,55.95,68.16,57.19,68.16z M38.44,5.93c0.01-1.19,0.9-2.16,2.15-2.17c1.13-0.01,2.18,0.84,2.17,2.19
		c-0.01,1.32-1.03,2.16-2.16,2.16C39.35,8.09,38.46,7.13,38.44,5.93z M29.31,60.48c-1.56,2.38-3.12,4.77-4.67,7.15
		c-1.15,1.77-2.3,3.54-3.44,5.31c-0.38,0.58-0.72,1.19-1.13,1.75c-0.6,0.82-1.4,1.35-2.42,1.53c-0.97,0.17-1.85-0.07-2.63-0.62
		c-0.76-0.53-1.29-1.27-1.47-2.21c-0.26-1.35,0.18-2.47,1.11-3.46c0.74-0.79,1.42-1.64,2.14-2.45c0.56-0.64,1.15-1.27,1.71-1.92
		c0.7-0.8,1.39-1.61,2.08-2.41c0.49-0.56,0.99-1.12,1.48-1.68c0.77-0.88,1.54-1.77,2.32-2.65c0.57-0.64,1.14-1.28,1.71-1.92
		c0.07-0.08,0.14-0.16,0.16-0.19c1.21,0.92,2.41,1.83,3.67,2.79C29.75,59.79,29.53,60.14,29.31,60.48z M53.3,55.58
		c-3.83,3.49-8.41,5.16-13.58,4.91c-4.92-0.24-9.15-2.14-12.62-5.69c-3.46-3.54-5.27-7.82-5.4-12.72
		c-0.13-5.23,1.65-9.85,5.33-13.61c3.86-3.94,8.65-5.9,14.17-5.74c5.28,0.16,9.79,2.25,13.36,6.16c3.27,3.58,4.89,7.85,4.94,12.88
		C59.41,47.14,57.39,51.85,53.3,55.58z M72.94,58.85c-1.19,0.03-2.21-1.05-2.15-2.19c-0.09-1.1,1.08-2.19,2.15-2.14
		c1.33,0.07,2.14,0.96,2.16,2.17C75.12,57.89,74.17,58.82,72.94,58.85z"/>
	<path d="M57.03,41.28c-0.01,4.77-1.55,8.65-4.66,11.81c-3.41,3.47-7.64,5.13-12.5,4.93c-4.27-0.17-7.98-1.79-10.97-4.85
		c-3.42-3.5-4.97-7.75-4.69-12.63c0.24-4.13,1.85-7.7,4.79-10.6c3.41-3.37,7.58-4.98,12.37-4.76c4.55,0.21,8.41,2.04,11.46,5.43
		C55.63,33.73,57,37.41,57.03,41.28z M40.65,27.02C32.41,27,26.22,33.56,26.01,41.05c-0.24,8.77,6.53,14.75,13.74,15.12
		c4.2,0.22,7.88-1.14,10.93-4.03c2.88-2.73,4.41-6.15,4.51-10.1C55.42,33.57,48.6,26.98,40.65,27.02z"/>
	<path d="M38.62,37.24c-1.77-1.08-2.35-2.95-1.88-4.59c0.48-1.71,1.92-2.75,3.39-2.88c2.25-0.2,3.57,1.07,4.15,2.4
		c0.79,1.81,0.13,3.98-1.69,5.07c0.33,0.23,0.67,0.46,1,0.71c0.82,0.62,1.27,1.47,1.5,2.45c0.05,0.2,0.07,0.41,0.07,0.62
		c0.01,1.47-0.02,2.95,0.01,4.42c0.02,1.07-0.7,2.07-1.73,2.38c-0.05,0.84-0.09,1.69-0.15,2.53c-0.08,1.08-0.12,2.17-0.28,3.24
		c-0.13,0.81-0.94,1.48-1.82,1.46c-0.55-0.02-1.11,0.01-1.65-0.08c-0.74-0.12-1.4-0.97-1.43-1.72c-0.05-1.09-0.13-2.17-0.2-3.26
		c-0.05-0.72-0.11-1.44-0.17-2.17c-1.11-0.38-1.77-1.38-1.76-2.54c0.01-1.25,0-2.51,0-3.76c0.01-1.38,0.45-2.58,1.5-3.5
		C37.82,37.72,38.23,37.5,38.62,37.24z M37.84,43.3c0,0.66,0,1.33,0,1.99c0,0.53,0.23,0.76,0.75,0.77c0.13,0,0.26,0.02,0.38,0.07
		c0.5,0.18,0.55,0.63,0.59,1.07c0.06,0.67,0.09,1.33,0.14,2c0.07,1.07,0.18,2.15,0.19,3.22c0.01,0.97,0.16,0.82,0.85,0.83
		c0.47,0,0.54-0.07,0.57-0.54c0.04-0.67,0.09-1.34,0.13-2c0.07-1.22,0.14-2.43,0.2-3.65c0.03-0.59,0.4-0.98,0.99-0.99
		c0.45-0.01,0.74-0.25,0.74-0.69c-0.01-1.47-0.01-2.94-0.07-4.41c-0.03-0.73-0.44-1.27-1.02-1.71c-0.56-0.42-1.2-0.46-1.87-0.46
		c-1.42-0.01-2.56,1.11-2.57,2.58C37.84,42.02,37.84,42.66,37.84,43.3z M40.6,35.88c1.18,0.02,2.18-0.97,2.16-2.16
		c-0.02-1.24-0.97-2.16-2.17-2.15c-1.18,0.01-2.12,0.94-2.16,2.1C38.4,34.87,39.46,35.93,40.6,35.88z"/>
</g>
</svg>
