<?xml version="1.0" encoding="utf-8"?>
<!-- Generator: Adobe Illustrator 24.3.0, SVG Export Plug-In . SVG Version: 6.00 Build 0)  -->
<svg version="1.1" id="Layer_1" xmlns="http://www.w3.org/2000/svg" xmlns:xlink="http://www.w3.org/1999/xlink" x="0px" y="0px"
	 viewBox="0 0 80 80" style="enable-background:new 0 0 80 80;" xml:space="preserve">
<g>
	<path d="M62.41,42.11c-0.05,4.07-2.2,9.42-6.58,13.78c-4.55,4.53-10.12,6.71-16.54,6.52c-5.91-0.17-11.02-2.39-15.18-6.59
		c-4.52-4.56-6.7-10.12-6.51-16.54c0.18-5.92,2.4-11.04,6.62-15.2c4.57-4.51,10.13-6.67,16.55-6.48
		C52.58,17.92,62.45,27.68,62.41,42.11z M40.78,28.38c0,3.64,0,7.24,0,10.84c3.63,0,7.24,0,10.87,0c0-0.11,0-0.21,0-0.3
		c-0.04-0.67-0.05-1.35-0.12-2.02c-0.08-0.88-0.17-1.77-0.31-2.65c-0.31-1.98-0.8-3.91-1.5-5.79c-0.14-0.38-0.29-0.75-0.45-1.14
		C46.46,27.96,43.64,28.3,40.78,28.38z M39.22,39.22c0-3.62,0-7.22,0-10.85c-2.87-0.08-5.68-0.42-8.47-1.05
		c-0.82,1.9-1.38,3.85-1.78,5.85c-0.42,2.12-0.71,5.52-0.58,6.05C32,39.22,35.6,39.22,39.22,39.22z M40.78,40.78
		c0,3.62,0,7.22,0,10.84c1.44,0.02,2.86,0.14,4.27,0.31c1.41,0.17,2.81,0.41,4.21,0.74c1.06-2.48,1.71-5.05,2.07-7.68
		c0.19-1.39,0.32-2.79,0.31-4.21C48.01,40.78,44.4,40.78,40.78,40.78z M39.22,51.62c0-3.64,0-7.24,0-10.84
		c-0.09,0-0.17-0.01-0.24-0.01c-3.52,0-7.05,0.01-10.57,0.02c-0.01,0-0.02,0.01-0.02,0.01c-0.01,0.01-0.01,0.01-0.04,0.05
		c0.01,0.26,0.03,0.55,0.05,0.84c0.04,0.58,0.07,1.16,0.11,1.74c0.08,1.02,0.23,2.03,0.41,3.03c0.36,2.01,0.91,3.97,1.68,5.86
		c0.05,0.12,0.1,0.24,0.15,0.36C33.55,52.03,36.36,51.69,39.22,51.62z M26.84,39.23c0.13-4.24,0.8-8.35,2.42-12.28
		c-0.09-0.03-0.15-0.05-0.21-0.07c-0.71-0.23-1.43-0.45-2.14-0.69c-0.59-0.21-1.18-0.44-1.76-0.67c-0.14-0.05-0.22-0.04-0.31,0.08
		c-0.2,0.24-0.41,0.46-0.62,0.69c-1.55,1.76-2.76,3.74-3.63,5.92c-0.5,1.23-0.87,2.5-1.12,3.8c-0.19,0.94-0.29,1.89-0.36,2.84
		c-0.01,0.13,0.01,0.25,0.01,0.39C21.69,39.23,24.24,39.23,26.84,39.23z M60.89,39.23c0-0.18,0.01-0.34,0-0.5
		c-0.05-0.52-0.1-1.04-0.16-1.56c-0.15-1.23-0.44-2.43-0.82-3.61c-0.38-1.2-0.88-2.36-1.48-3.46c-0.36-0.65-0.75-1.28-1.16-1.89
		c-0.61-0.91-1.29-1.75-2.05-2.54c-0.2-0.21-0.2-0.22-0.47-0.11c-1.23,0.5-2.49,0.94-3.77,1.31c-0.08,0.02-0.15,0.06-0.22,0.09
		c0.02,0.06,0.02,0.1,0.04,0.13c0.53,1.25,0.94,2.55,1.28,3.87c0.28,1.08,0.48,2.17,0.65,3.28c0.17,1.1,0.27,2.21,0.36,3.32
		c0.04,0.44,0.04,0.88,0.06,1.32c0.01,0.12,0.02,0.24,0.03,0.36C55.76,39.23,58.3,39.23,60.89,39.23z M26.84,40.78
		c-2.6,0-5.16,0-7.71,0c-0.04,1.49,0.36,4.45,1.6,7.35c1.02,2.4,2.44,4.54,4.23,6.37c1.45-0.5,2.87-1,4.29-1.49
		c-0.01-0.03-0.02-0.08-0.04-0.12c-0.32-0.91-0.67-1.81-0.96-2.74c-0.47-1.5-0.79-3.03-0.99-4.58c-0.08-0.67-0.18-1.34-0.25-2.01
		c-0.06-0.56-0.09-1.12-0.12-1.68C26.86,41.52,26.85,41.16,26.84,40.78z M55.06,54.51c0.28-0.31,0.58-0.63,0.86-0.97
		c1.48-1.74,2.66-3.68,3.51-5.8c0.58-1.45,1-2.95,1.23-4.49c0.09-0.56,0.15-1.13,0.2-1.7c0.02-0.25,0.07-0.52-0.01-0.77
		c-2.57,0-5.12,0-7.68,0c-0.01,0.11-0.02,0.2-0.03,0.29c-0.03,0.6-0.06,1.2-0.1,1.8c-0.03,0.52-0.06,1.05-0.14,1.57
		c-0.13,0.9-0.27,1.8-0.43,2.69c-0.35,1.96-0.92,3.87-1.66,5.72c-0.03,0.06-0.04,0.13-0.05,0.17C52.2,53.51,53.61,54,55.06,54.51z
		 M40.78,60.84c0.04,0.01,0.07,0.02,0.1,0.02c0.07,0,0.13-0.01,0.2-0.02c0.8-0.14,1.56-0.41,2.27-0.8c1.21-0.67,2.23-1.58,3.11-2.65
		c0.59-0.71,1.11-1.47,1.58-2.26c0.2-0.34,0.38-0.68,0.58-1.06c-2.6-0.58-5.2-0.88-7.83-0.95C40.78,55.72,40.78,58.28,40.78,60.84z
		 M40.78,26.86c2.64-0.05,5.23-0.37,7.82-0.94c-0.04-0.09-0.06-0.14-0.09-0.19c-0.24-0.42-0.47-0.85-0.73-1.27
		c-0.72-1.15-1.53-2.22-2.54-3.14c-0.86-0.78-1.81-1.42-2.92-1.83c-0.49-0.18-1-0.32-1.54-0.37C40.78,21.72,40.78,24.28,40.78,26.86
		z M31.4,25.92c2.61,0.57,5.2,0.89,7.84,0.94c0-0.65,0-1.3,0-1.95c0-0.64,0-1.28,0-1.92c0-0.65,0-1.3,0-1.94
		c-0.01-0.64,0.02-1.28-0.02-1.93c-0.92,0.11-1.75,0.4-2.53,0.82c-1.21,0.66-2.22,1.56-3.1,2.62c-0.59,0.72-1.12,1.48-1.6,2.28
		C31.79,25.18,31.61,25.53,31.4,25.92z M31.42,54.07c0.04,0.1,0.06,0.16,0.09,0.21c0.24,0.42,0.47,0.86,0.73,1.27
		c0.99,1.58,2.16,3,3.72,4.05c0.77,0.52,1.6,0.9,2.5,1.13c0.24,0.06,0.49,0.09,0.73,0.14c0.06-0.34,0.05-7.54-0.01-7.75
		C36.58,53.2,33.99,53.49,31.42,54.07z M29.9,25.54c1.04-2.08,2.32-3.98,4.06-5.54c-2.21,0.47-6.58,2.92-7.73,4.32
		C27.43,24.79,28.64,25.2,29.9,25.54z M53.79,55.71c-0.51-0.29-3.29-1.21-3.67-1.22c-0.39,0.67-0.75,1.35-1.16,1.99
		c-0.41,0.64-0.86,1.26-1.34,1.84c-0.48,0.58-1.02,1.11-1.57,1.7C48.97,59.13,51.53,57.69,53.79,55.71z M33.94,59.99
		c-1.73-1.56-3-3.46-4.05-5.54c-1.26,0.34-2.48,0.75-3.71,1.24C28.48,57.69,31.04,59.13,33.94,59.99z M53.82,24.31
		c-2.31-2.02-4.87-3.45-7.77-4.31c1.74,1.57,3.02,3.47,4.06,5.55C51.37,25.2,52.57,24.79,53.82,24.31z"/>
	<path d="M14.35,64.57c0.11-0.1,0.19-0.17,0.26-0.24c1.59-1.6,3.18-3.2,4.77-4.8c0.18-0.18,0.37-0.32,0.63-0.33
		c0.29-0.01,0.52,0.09,0.67,0.33c0.16,0.25,0.16,0.52,0.02,0.78c-0.06,0.12-0.16,0.23-0.26,0.33c-1.58,1.58-3.16,3.16-4.74,4.74
		c-0.07,0.07-0.14,0.15-0.25,0.27c0.34-0.04,0.62-0.07,0.89-0.1c0.85-0.1,1.69-0.22,2.54-0.31c0.42-0.05,0.72,0.14,0.84,0.5
		c0.14,0.41-0.09,0.87-0.52,0.97c-0.23,0.05-0.46,0.07-0.69,0.1c-1.67,0.21-3.34,0.41-5.01,0.62c-0.6,0.07-1-0.32-0.92-0.93
		c0.17-1.36,0.34-2.71,0.5-4.07c0.06-0.46,0.11-0.93,0.17-1.39c0.04-0.36,0.18-0.65,0.55-0.77c0.47-0.15,0.93,0.17,0.96,0.66
		c0.01,0.14-0.01,0.28-0.03,0.42c-0.12,1-0.25,2.01-0.37,3.01C14.35,64.42,14.35,64.47,14.35,64.57z"/>
	<path d="M65.68,15.43c-0.12,0.11-0.19,0.18-0.26,0.25c-1.59,1.59-3.17,3.18-4.76,4.76c-0.09,0.09-0.19,0.18-0.31,0.24
		c-0.32,0.19-0.64,0.14-0.91-0.09c-0.19-0.17-0.31-0.54-0.15-0.88c0.05-0.1,0.12-0.2,0.19-0.27c0.7-0.71,1.4-1.41,2.11-2.11
		c0.53-0.52,1.06-1.04,1.59-1.56c0.42-0.42,0.83-0.84,1.24-1.27c0.04-0.04,0.07-0.08,0.13-0.16c-0.41,0.05-0.76,0.09-1.12,0.13
		c-0.79,0.1-1.58,0.2-2.37,0.3c-0.38,0.04-0.77-0.29-0.81-0.67c-0.04-0.42,0.23-0.78,0.66-0.84c0.46-0.06,0.93-0.11,1.39-0.17
		c1.33-0.17,2.65-0.33,3.98-0.5c0.15-0.02,0.3-0.03,0.45-0.02c0.41,0.01,0.7,0.29,0.69,0.69c0,0.31-0.04,0.62-0.08,0.92
		c-0.1,0.85-0.21,1.71-0.32,2.56c-0.1,0.78-0.19,1.56-0.29,2.34c-0.06,0.44-0.45,0.73-0.89,0.65c-0.4-0.07-0.66-0.46-0.6-0.88
		c0.11-0.87,0.22-1.75,0.33-2.62C65.61,15.99,65.64,15.74,65.68,15.43z"/>
	<path d="M39.24,75.44c0-0.1,0-0.2,0-0.3c0-2.23,0-4.45,0-6.68c0-0.15,0.01-0.3,0.05-0.44c0.08-0.33,0.35-0.55,0.69-0.56
		c0.34-0.01,0.63,0.18,0.73,0.51c0.04,0.14,0.05,0.29,0.05,0.44c0,2.25,0,4.49,0,6.74c0,0.1,0,0.2,0,0.36
		c0.08-0.08,0.13-0.12,0.16-0.16c0.67-0.85,1.33-1.7,2-2.55c0.2-0.25,0.46-0.35,0.77-0.29c0.54,0.1,0.79,0.75,0.41,1.24
		c-0.54,0.7-1.09,1.39-1.63,2.08c-0.61,0.78-1.22,1.55-1.81,2.33c-0.27,0.35-0.71,0.45-1.04,0.24c-0.1-0.06-0.19-0.15-0.26-0.25
		c-1.14-1.45-2.27-2.91-3.41-4.37c-0.17-0.21-0.24-0.45-0.19-0.71c0.06-0.3,0.25-0.5,0.56-0.57c0.3-0.06,0.57,0.02,0.76,0.26
		c0.33,0.4,0.64,0.81,0.96,1.22c0.39,0.49,0.77,0.99,1.16,1.48C39.2,75.45,39.22,75.45,39.24,75.44z"/>
	<path d="M4.54,40.82c0.78,0.61,1.55,1.21,2.33,1.82c0.11,0.09,0.22,0.17,0.33,0.26c0.35,0.29,0.42,0.75,0.17,1.08
		c-0.26,0.34-0.79,0.37-1.11,0.11c-0.8-0.64-1.61-1.26-2.42-1.89c-0.66-0.51-1.31-1.03-1.97-1.54c-0.21-0.16-0.36-0.35-0.37-0.63
		c-0.01-0.3,0.12-0.52,0.35-0.7c0.56-0.43,1.11-0.86,1.66-1.3c0.9-0.7,1.8-1.41,2.7-2.12c0.21-0.17,0.45-0.24,0.7-0.19
		c0.3,0.06,0.5,0.24,0.57,0.55c0.07,0.31-0.02,0.58-0.27,0.78c-0.51,0.4-1.02,0.8-1.53,1.2c-0.35,0.27-0.69,0.54-1.04,0.81
		c-0.04,0.03-0.08,0.07-0.12,0.16c0.1,0,0.19,0,0.29,0c2.26,0,4.53,0,6.79,0c0.15,0,0.3,0.02,0.44,0.06
		c0.31,0.11,0.49,0.4,0.47,0.72c-0.01,0.31-0.21,0.58-0.51,0.67c-0.14,0.04-0.29,0.06-0.44,0.06c-2.25,0-4.49,0-6.74,0
		c-0.1,0-0.2,0-0.3,0C4.55,40.78,4.55,40.8,4.54,40.82z"/>
	<path d="M40.76,4.56c0,0.1,0,0.2,0,0.3c0,2.22,0,4.44,0,6.65c0,0.08,0,0.15,0,0.23c-0.02,0.48-0.31,0.78-0.75,0.78
		c-0.44,0-0.74-0.3-0.77-0.76c-0.01-0.07,0-0.15,0-0.23c0-2.23,0-4.45,0-6.68c0-0.1,0-0.2,0-0.3c-0.02-0.01-0.03-0.01-0.05-0.02
		c-0.07,0.09-0.15,0.18-0.22,0.27c-0.62,0.79-1.24,1.58-1.85,2.37c-0.14,0.18-0.32,0.29-0.54,0.32c-0.31,0.05-0.6-0.09-0.74-0.35
		c-0.15-0.29-0.15-0.58,0.05-0.85c0.32-0.43,0.65-0.85,0.98-1.27c0.83-1.06,1.65-2.11,2.48-3.17c0.18-0.23,0.39-0.36,0.69-0.36
		c0.27,0.01,0.46,0.13,0.62,0.33c0.3,0.38,0.6,0.77,0.9,1.15c0.84,1.08,1.68,2.16,2.53,3.24c0.18,0.23,0.24,0.48,0.16,0.76
		c-0.08,0.28-0.26,0.46-0.55,0.51c-0.3,0.05-0.56-0.02-0.76-0.26c-0.63-0.8-1.26-1.61-1.89-2.42c-0.07-0.09-0.15-0.19-0.22-0.28
		C40.8,4.54,40.78,4.55,40.76,4.56z"/>
	<path d="M75.44,40.76c-0.1,0-0.2,0-0.3,0c-2.24,0-4.47,0-6.71,0c-0.13,0-0.26-0.01-0.39-0.04c-0.39-0.1-0.59-0.4-0.56-0.8
		c0.02-0.36,0.29-0.63,0.68-0.68c0.09-0.01,0.19-0.01,0.28-0.01c2.24,0,4.47,0,6.71,0c0.1,0,0.2,0,0.3,0
		c0.01-0.02,0.02-0.04,0.03-0.06c-0.09-0.07-0.18-0.15-0.27-0.22c-0.8-0.62-1.59-1.25-2.4-1.87c-0.17-0.13-0.27-0.29-0.3-0.49
		c-0.06-0.33,0.08-0.62,0.33-0.78c0.27-0.17,0.7-0.1,0.9,0.06c0.58,0.46,1.17,0.91,1.75,1.37c0.88,0.69,1.76,1.38,2.64,2.06
		c0.21,0.16,0.36,0.34,0.37,0.63c0.01,0.31-0.12,0.53-0.36,0.72c-0.65,0.5-1.3,1.01-1.95,1.52c-0.81,0.64-1.63,1.27-2.44,1.91
		c-0.28,0.22-0.73,0.22-0.97,0.03c-0.38-0.3-0.38-0.88,0.01-1.2c0.5-0.4,1-0.79,1.51-1.18c0.39-0.31,0.78-0.61,1.17-0.92
		C75.46,40.8,75.45,40.78,75.44,40.76z"/>
	<path d="M14.34,15.52c0.05,0.43,0.1,0.85,0.16,1.28c0.09,0.7,0.18,1.39,0.25,2.09c0.05,0.52-0.3,0.89-0.8,0.86
		c-0.34-0.02-0.61-0.26-0.67-0.61c-0.07-0.39-0.11-0.78-0.15-1.17c-0.19-1.49-0.37-2.97-0.56-4.46c-0.07-0.57,0.26-1,0.85-0.94
		c0.1,0.01,0.21,0.01,0.31,0.02c0.87,0.11,1.75,0.22,2.62,0.33c0.91,0.11,1.82,0.23,2.73,0.33c0.44,0.05,0.73,0.46,0.68,0.85
		c-0.06,0.43-0.47,0.7-0.9,0.64c-0.68-0.09-1.36-0.17-2.03-0.25c-0.44-0.05-0.87-0.11-1.38-0.17c0.11,0.12,0.17,0.19,0.24,0.26
		c1.59,1.6,3.19,3.19,4.79,4.78c0.17,0.17,0.31,0.35,0.33,0.6c0.02,0.31-0.08,0.55-0.35,0.71c-0.26,0.15-0.52,0.15-0.77,0
		c-0.11-0.07-0.21-0.15-0.3-0.25c-1.58-1.58-3.16-3.16-4.75-4.74c-0.07-0.07-0.15-0.14-0.22-0.21
		C14.38,15.5,14.36,15.51,14.34,15.52z"/>
	<path d="M64.52,65.61c-0.07-0.07-0.13-0.15-0.2-0.22c-1.59-1.59-3.18-3.18-4.77-4.77c-0.15-0.15-0.27-0.3-0.31-0.52
		c-0.06-0.32,0.03-0.58,0.28-0.77c0.25-0.18,0.53-0.18,0.8-0.05c0.12,0.06,0.23,0.16,0.33,0.26c1.59,1.59,3.18,3.18,4.77,4.76
		c0.07,0.07,0.14,0.13,0.26,0.24c-0.06-0.56-0.12-1.05-0.18-1.54c-0.08-0.65-0.17-1.3-0.25-1.95c-0.05-0.41,0.27-0.78,0.68-0.83
		c0.38-0.04,0.77,0.25,0.82,0.65c0.07,0.45,0.11,0.91,0.17,1.37c0.17,1.35,0.34,2.69,0.5,4.04c0.02,0.13,0.02,0.26,0.02,0.39
		c0,0.46-0.3,0.77-0.76,0.75c-0.36-0.02-0.73-0.07-1.09-0.12c-0.71-0.09-1.41-0.18-2.12-0.27c-0.82-0.1-1.64-0.19-2.45-0.29
		c-0.2-0.03-0.4-0.08-0.55-0.25c-0.22-0.24-0.26-0.51-0.15-0.81c0.11-0.29,0.34-0.44,0.65-0.45c0.16-0.01,0.32,0.03,0.47,0.05
		c0.84,0.1,1.67,0.2,2.51,0.3c0.18,0.02,0.36,0.04,0.55,0.06C64.5,65.64,64.51,65.63,64.52,65.61z"/>
</g>
</svg>
