<?xml version="1.0" encoding="utf-8"?>
<!-- Generator: Adobe Illustrator 24.3.0, SVG Export Plug-In . SVG Version: 6.00 Build 0)  -->
<svg version="1.1" id="Layer_1" xmlns="http://www.w3.org/2000/svg" xmlns:xlink="http://www.w3.org/1999/xlink" x="0px" y="0px"
	 viewBox="0 0 80 80" style="enable-background:new 0 0 80 80;" xml:space="preserve">
<g>
	<path d="M50.23,61.11c-0.17,1.33-1.25,2.36-2.87,2.22c-0.26,0.78-0.75,1.36-1.55,1.66c-0.8,0.29-1.55,0.13-2.28-0.29
		c-0.05,0.11-0.1,0.18-0.13,0.26c-0.62,1.34-2.2,1.85-3.5,1.11c-0.46-0.27-0.92-0.55-1.39-0.83c-0.53,0.35-1.09,0.47-1.69,0.3
		c-0.6-0.17-1.02-0.56-1.25-1.14c-1.2,0.1-2.01-0.37-2.41-1.53c-0.49,0.01-0.97-0.06-1.4-0.37c-0.42-0.3-0.68-0.72-0.82-1.2
		c-1.94-0.17-2.48-2.05-1.48-3.26c-0.58-0.7-1.17-1.4-1.74-2.08c-0.07,0-0.1-0.01-0.11,0c-0.49,0.35-0.99,0.31-1.53,0.11
		c-0.81-0.3-1.63-0.61-2.46-0.87c-0.85-0.27-1.19-1.04-0.88-1.88c0.81-2.27,1.6-4.55,2.4-6.83c0.3-0.87,0.61-1.73,0.92-2.6
		c0.26-0.73,0.94-1.09,1.69-0.84c0.81,0.27,1.62,0.56,2.42,0.85c0.1,0.03,0.19,0.07,0.29,0.1c0.76,0.26,1.07,0.74,0.99,1.57
		c0.35,0.22,0.76,0.32,1.17,0.4c0.91,0.19,1.83,0.19,2.75,0.19c0.19,0,0.31-0.08,0.44-0.19c0.63-0.49,1.31-0.89,2.04-1.2
		c0.72-0.3,1.45-0.36,2.21-0.28c1.49,0.17,2.93,0.57,4.38,0.9c0.72,0.17,1.45,0.26,2.19,0.31c0.63,0.04,1.24-0.07,1.87-0.14
		c0.01-0.14,0.02-0.25,0.03-0.36c0.05-0.56,0.32-0.96,0.86-1.16c0.93-0.33,1.85-0.65,2.78-0.98c0.81-0.29,1.54,0.13,1.8,0.88
		c0.99,2.86,2,5.71,3,8.57c0.1,0.29,0.21,0.58,0.31,0.87c0.29,0.82-0.04,1.51-0.86,1.8c-0.85,0.3-1.71,0.6-2.56,0.91
		c-0.59,0.22-1.12,0.17-1.62-0.3c-0.32,0.24-0.63,0.48-0.98,0.74c0.85,0.72,1.32,1.57,1.07,2.68
		C52.08,60.33,51.29,60.86,50.23,61.11z M39.36,61.85c0.12-0.19,0.19-0.4,0.34-0.53c0.29-0.24,0.62-0.25,0.96-0.06
		c0.63,0.36,1.27,0.72,1.9,1.08c0.64,0.37,1.28,0.74,1.93,1.1c0.52,0.29,1.1,0.1,1.33-0.41c0.13-0.3,0.11-0.39-0.18-0.55
		c-0.69-0.39-1.38-0.78-2.06-1.18c-0.48-0.27-0.96-0.54-1.43-0.82c-0.3-0.18-0.42-0.56-0.32-0.91c0.09-0.29,0.4-0.51,0.75-0.48
		c0.18,0.02,0.37,0.08,0.54,0.17c1.34,0.75,2.67,1.51,4,2.27c0.11,0.06,0.22,0.13,0.34,0.17c0.41,0.16,0.79,0.05,1.07-0.28
		c0.3-0.37,0.25-0.65-0.16-0.88c-1.23-0.7-2.47-1.4-3.7-2.1c-0.12-0.07-0.24-0.15-0.34-0.25c-0.23-0.21-0.27-0.49-0.19-0.78
		c0.08-0.29,0.29-0.42,0.58-0.49c0.25-0.05,0.45,0.02,0.65,0.14c1.1,0.63,2.2,1.25,3.3,1.88c0.3,0.17,0.59,0.35,0.9,0.51
		c0.36,0.18,0.7,0.12,1-0.12c0.28-0.22,0.38-0.52,0.29-0.86c-0.07-0.26-0.22-0.48-0.44-0.65c-0.78-0.61-1.57-1.23-2.33-1.86
		c-1.73-1.45-3.44-2.93-5.29-4.24c-0.78-0.56-1.58-1.08-2.46-1.47c-0.36-0.16-0.71-0.17-1.08-0.11c-0.38,0.06-0.74,0.2-1.05,0.43
		c-0.28,0.2-0.56,0.41-0.85,0.6c-0.34,0.22-0.68,0.47-1.06,0.61c-0.84,0.31-1.71,0.42-2.6,0.23c-0.63-0.14-1.21-0.39-1.44-1.07
		c-0.23-0.67-0.09-1.3,0.36-1.83c0.31-0.37,0.7-0.67,1.05-1.01c0.13-0.12,0.25-0.24,0.44-0.43c-1.14-0.07-2.16-0.23-3.15-0.63
		c-0.87,2.47-1.72,4.9-2.57,7.3c0.76,0.88,1.48,1.74,2.22,2.6c0.11-0.03,0.2-0.06,0.3-0.09c0.77-0.21,1.62,0.1,2.05,0.77
		c0.14,0.22,0.28,0.27,0.53,0.25c0.98-0.06,1.66,0.35,2.05,1.23c0.1,0.22,0.21,0.29,0.45,0.31c0.71,0.04,1.28,0.34,1.64,0.97
		c0.12,0.22,0.2,0.46,0.32,0.73C38.45,61.21,38.97,61.39,39.36,61.85z M51.64,54.32c-0.85-2.41-1.7-4.84-2.56-7.28
		c-0.11,0.01-0.18,0-0.25,0.02c-0.87,0.14-1.74,0.28-2.62,0.15c-0.64-0.09-1.29-0.16-1.93-0.29c-1.29-0.26-2.57-0.56-3.85-0.84
		c-0.84-0.19-1.65-0.13-2.41,0.29c-0.59,0.32-1.15,0.67-1.63,1.14c-0.52,0.52-1.03,1.07-1.56,1.59c-0.3,0.3-0.63,0.56-0.93,0.86
		c-0.11,0.11-0.18,0.26-0.28,0.41c0.1,0.06,0.16,0.1,0.22,0.11c0.74,0.19,1.45,0.11,2.11-0.27c0.46-0.27,0.89-0.6,1.33-0.9
		c0.4-0.27,0.83-0.5,1.31-0.61c0.9-0.2,1.76-0.17,2.6,0.27c1.19,0.61,2.31,1.33,3.35,2.15c1.61,1.28,3.18,2.6,4.77,3.9
		c0.23,0.19,0.47,0.38,0.68,0.55C50.56,55.14,51.09,54.74,51.64,54.32z M55.77,53.78c-0.15-0.69-3.1-8.97-3.27-9.19
		c-0.26,0.09-0.53,0.18-0.79,0.27c-0.27,0.09-0.53,0.18-0.79,0.29c-0.25,0.1-0.55,0.12-0.75,0.33c1.08,3.05,2.13,6.1,3.22,9.14
		C54.21,54.33,54.98,54.06,55.77,53.78z M26.64,54.61c1.08-3.08,2.16-6.13,3.23-9.21c-0.83-0.29-1.61-0.56-2.42-0.84
		c-1.08,3.09-2.16,6.14-3.23,9.21C25.05,54.06,25.83,54.33,26.64,54.61z M39.59,64.08c0.35,0.21,0.74,0.47,1.14,0.67
		c0.33,0.17,0.66,0.14,0.97-0.09c0.27-0.2,0.35-0.48,0.36-0.82c-0.76-0.43-1.53-0.87-2.29-1.3C39.71,63.06,39.66,63.54,39.59,64.08z
		 M32.99,61.32c0.04-0.02,0.17-0.03,0.22-0.09c0.31-0.37,0.62-0.74,0.89-1.13c0.12-0.18,0-0.49-0.17-0.61
		c-0.17-0.13-0.44-0.15-0.6,0.02c-0.31,0.35-0.62,0.71-0.85,1.11C32.3,60.91,32.58,61.31,32.99,61.32z M36.36,61.52
		c-0.01-0.28-0.11-0.45-0.32-0.54c-0.21-0.09-0.42-0.04-0.56,0.12c-0.27,0.32-0.53,0.65-0.76,1c-0.13,0.2-0.07,0.47,0.09,0.63
		c0.16,0.16,0.4,0.19,0.63,0.05c0.07-0.04,0.15-0.1,0.2-0.17c0.2-0.25,0.4-0.5,0.58-0.76C36.3,61.74,36.33,61.6,36.36,61.52z
		 M31.75,58.62c-0.06-0.07-0.13-0.19-0.24-0.26c-0.15-0.09-0.31-0.04-0.41,0.09c-0.19,0.23-0.38,0.48-0.55,0.73
		c-0.1,0.16-0.06,0.33,0.08,0.44c0.13,0.12,0.33,0.15,0.45,0.01c0.23-0.26,0.43-0.56,0.64-0.84C31.74,58.77,31.73,58.72,31.75,58.62
		z M38.2,62.97c-0.04-0.05-0.1-0.17-0.19-0.24c-0.12-0.08-0.29-0.08-0.39,0.04c-0.22,0.26-0.42,0.54-0.62,0.82
		c-0.09,0.13-0.02,0.26,0.08,0.34c0.09,0.07,0.22,0.13,0.33,0.12c0.2-0.02,0.78-0.77,0.79-0.98C38.2,63.06,38.2,63.05,38.2,62.97z"
		/>
	<path d="M74.2,70.67c0,1.5-0.01,2.99,0.01,4.49c0.01,0.46-0.16,0.74-0.58,0.93c-1.47,0.65-2.98,1.13-4.56,1.43
		c-1.27,0.24-2.55,0.37-3.84,0.41c-2.52,0.09-4.99-0.2-7.4-0.94c-0.8-0.24-1.58-0.57-2.37-0.86c-0.48-0.18-0.68-0.51-0.67-1.03
		c0.02-2.89-0.02-5.78,0.02-8.67c0.02-1.88,0.66-3.55,1.91-4.97c0.96-1.09,2.16-1.83,3.59-2.15c0.49-0.11,1.01-0.17,1.52-0.18
		c1.79-0.02,3.58-0.02,5.37,0c1.74,0.02,3.27,0.6,4.56,1.78c1.36,1.24,2.14,2.78,2.38,4.59c0.05,0.35,0.07,0.71,0.07,1.07
		C74.2,67.93,74.2,69.3,74.2,70.67z M56.31,74.79c2.24,1.03,5.79,1.92,10.35,1.52c2.08-0.18,4.1-0.65,6.02-1.5c0-0.19,0-0.34,0-0.5
		c0-2.49,0-4.99,0-7.48c0-0.41-0.02-0.82-0.08-1.22c-0.27-1.71-1.1-3.09-2.54-4.07c-0.89-0.61-1.9-0.86-2.96-0.89
		c-0.81-0.02-1.61-0.01-2.42,0c-1.1,0.01-2.2,0.01-3.3,0.06c-1,0.04-1.9,0.41-2.68,1.02c-1.58,1.22-2.35,2.88-2.38,4.85
		c-0.04,2.62-0.01,5.25-0.01,7.87C56.31,74.54,56.31,74.66,56.31,74.79z"/>
	<path d="M25.21,71.11c0,1.51-0.01,3.02,0.01,4.53c0,0.44-0.17,0.71-0.57,0.89c-1.99,0.88-4.06,1.43-6.22,1.69
		c-1.52,0.18-3.03,0.2-4.55,0.11c-2.1-0.12-4.15-0.52-6.12-1.25c-0.44-0.17-0.88-0.35-1.32-0.52C6,76.39,5.79,76.09,5.8,75.59
		c0.02-2.88,0-5.75,0.01-8.63c0.01-1.78,0.56-3.39,1.69-4.78c1.09-1.36,2.49-2.21,4.22-2.5c0.36-0.06,0.74-0.09,1.1-0.09
		c1.79-0.01,3.58-0.01,5.37,0c1.07,0.01,2.1,0.23,3.06,0.72c1.27,0.66,2.25,1.62,2.96,2.86c0.69,1.22,1.02,2.52,1.01,3.92
		C25.21,68.43,25.21,69.77,25.21,71.11z M23.69,75.3c0-0.23,0-0.38,0-0.53c0-2.55,0-5.09,0-7.64c0-0.96-0.18-1.88-0.59-2.75
		c-0.58-1.22-1.45-2.16-2.67-2.76c-0.72-0.36-1.5-0.52-2.29-0.52c-1.54-0.01-3.07-0.01-4.61,0c-0.41,0-0.82,0.02-1.22,0.05
		c-0.77,0.05-1.48,0.29-2.13,0.69c-1.88,1.18-2.81,2.94-2.85,5.13c-0.05,2.62-0.01,5.25-0.01,7.87c0,0.14,0,0.28,0,0.46
		C12.79,77.4,18.22,77.4,23.69,75.3z"/>
	<path d="M30.58,27.41c0-1.39-0.05-2.79,0.01-4.18c0.11-2.85,1.34-5.07,3.87-6.48c0.93-0.52,1.94-0.77,3.01-0.77
		c1.87,0,3.74-0.01,5.6,0c1.79,0.01,3.34,0.67,4.62,1.92c1.31,1.28,2.05,2.84,2.24,4.67c0.03,0.29,0.05,0.58,0.05,0.88
		c0,2.83-0.01,5.66,0.01,8.48c0,0.53-0.2,0.83-0.67,1.03c-1.83,0.78-3.72,1.32-5.7,1.59c-1.59,0.22-3.18,0.28-4.78,0.19
		c-2.69-0.15-5.28-0.73-7.74-1.84c-0.36-0.16-0.54-0.43-0.54-0.84C30.58,30.5,30.58,28.96,30.58,27.41z M32.1,31.64
		c2.26,0.98,4.58,1.43,6.96,1.58c1.29,0.08,2.58,0.02,3.86-0.13c1.77-0.2,3.49-0.63,5.15-1.28c0.39-0.16,0.39-0.16,0.39-0.58
		c0-2.48,0-4.96,0-7.45c0-0.41-0.02-0.82-0.07-1.22c-0.17-1.39-0.77-2.59-1.77-3.57c-1.03-1-2.29-1.51-3.74-1.5
		c-1.78,0.01-3.56-0.01-5.34,0c-1.19,0.01-2.26,0.39-3.18,1.14c-1.5,1.22-2.24,2.83-2.26,4.75c-0.03,2.62-0.01,5.25-0.01,7.87
		C32.1,31.38,32.1,31.5,32.1,31.64z"/>
	<path d="M58.76,50.52c0-0.83,0.02-1.66,0.21-2.47c0.32-1.39,1.19-2.29,2.49-2.79c0.73-0.28,1.5-0.38,2.28-0.45
		c0.82-0.08,1.63-0.03,2.44,0.09c1.14,0.17,2.16,0.62,2.93,1.51c0.5,0.59,0.78,1.29,0.92,2.04c0.09,0.51,0.12,1.04,0.17,1.56
		c0.03,0.32,0.05,0.64,0.05,0.95c0.01,2.08-0.65,3.91-1.99,5.49c-0.76,0.89-1.68,1.56-2.86,1.82c-1.13,0.25-2.18,0.04-3.16-0.55
		c-1.58-0.97-2.51-2.43-3.1-4.15C58.79,52.58,58.76,51.55,58.76,50.52z M60.27,50.53c-0.07,1.31,0.2,2.54,0.81,3.7
		c0.48,0.91,1.13,1.67,2.01,2.21c0.46,0.28,0.96,0.45,1.49,0.42c0.91-0.06,1.65-0.51,2.27-1.15c0.65-0.67,1.12-1.45,1.45-2.32
		c0.27-0.7,0.39-1.43,0.42-2.17c0.02-0.35-0.02-0.71-0.05-1.07c-0.05-0.51-0.08-1.02-0.18-1.52c-0.23-1.08-0.89-1.79-1.97-2.08
		c-1.45-0.39-2.91-0.34-4.34,0.07c-1.12,0.32-1.71,1.12-1.82,2.26C60.32,49.43,60.3,49.98,60.27,50.53z"/>
	<path d="M9.72,50.99c0.06-0.72,0.09-1.45,0.2-2.17c0.28-1.78,1.38-2.83,3.07-3.29c1.02-0.28,2.06-0.37,3.11-0.3
		c0.64,0.04,1.3,0.13,1.92,0.31c1.68,0.48,2.67,1.63,3.02,3.33c0.12,0.59,0.19,1.18,0.18,1.79c0,0.32,0.05,0.64,0.04,0.95
		c-0.05,2.23-0.85,4.16-2.43,5.74c-0.65,0.65-1.42,1.12-2.33,1.35c-1.23,0.31-2.36,0.05-3.4-0.62c-1.23-0.78-2.04-1.91-2.64-3.21
		C9.92,53.64,9.7,52.35,9.72,50.99z M11.32,50.98c0,0.19,0.01,0.38,0,0.57c-0.04,0.9,0.17,1.75,0.51,2.57
		c0.45,1.07,1.1,1.99,2.07,2.65c0.86,0.58,1.78,0.73,2.75,0.27c0.5-0.24,0.93-0.58,1.31-0.99c0.98-1.05,1.58-2.3,1.71-3.73
		c0.09-0.94,0.07-1.89-0.07-2.83c-0.22-1.44-0.9-2.21-2.32-2.56c-0.89-0.21-1.79-0.26-2.7-0.13c-0.5,0.08-1.01,0.16-1.49,0.31
		c-0.85,0.27-1.42,0.83-1.63,1.72C11.3,49.55,11.31,50.26,11.32,50.98z"/>
	<path d="M46.02,7.77c0.08,1.56-0.37,3.11-1.26,4.54c-0.64,1.03-1.45,1.89-2.54,2.43c-1.46,0.71-2.89,0.62-4.27-0.23
		c-1.09-0.68-1.87-1.64-2.47-2.77c-0.44-0.83-0.72-1.71-0.87-2.64c-0.03-0.18-0.03-0.36-0.04-0.53c-0.02-0.36-0.06-0.71-0.05-1.07
		c0.03-1.11,0-2.22,0.44-3.28c0.35-0.86,0.95-1.47,1.76-1.89c1.01-0.52,2.11-0.67,3.22-0.7c0.91-0.03,1.81,0.02,2.7,0.26
		c1.57,0.43,2.61,1.39,3.07,2.96C45.92,5.56,46.02,6.52,46.02,7.77z M44.47,7.64c0-0.2,0.02-0.41,0-0.61
		c-0.05-0.53-0.09-1.07-0.2-1.59c-0.23-1.11-0.93-1.8-2.01-2.08C40.82,3,39.37,3.04,37.95,3.46c-0.92,0.27-1.55,0.88-1.74,1.86
		c-0.04,0.22-0.09,0.45-0.1,0.68c-0.02,0.86-0.02,1.71-0.02,2.57c0,0.13,0.02,0.25,0.04,0.38c0.12,0.7,0.33,1.37,0.66,1.99
		c0.5,0.96,1.15,1.81,2.12,2.36c1.04,0.58,2.05,0.52,2.99-0.16C43.75,11.78,44.49,9.88,44.47,7.64z"/>
	<path d="M29.88,75.44c0.26,0.84,0.5,1.61,0.75,2.42c-0.1-0.02-0.14-0.03-0.18-0.05c-0.53-0.28-1.07-0.55-1.59-0.84
		c-0.08-0.04-0.16-0.13-0.19-0.22c-0.34-1.07-0.67-2.14-1-3.22c-0.01-0.02,0-0.05,0.01-0.13c0.27-0.09,0.55-0.18,0.84-0.27
		c0.77-0.24,1.54-0.47,2.3-0.72c0.2-0.06,0.36-0.05,0.54,0.06c0.39,0.22,0.79,0.41,1.19,0.62c0.13,0.07,0.26,0.15,0.46,0.27
		c-0.77,0.25-1.48,0.47-2.19,0.7c0,0.02,0,0.04,0,0.07c0.26,0.1,0.51,0.21,0.77,0.31c1.87,0.7,3.8,1.16,5.79,1.4
		c1.5,0.18,3.01,0.21,4.51,0.11c2.31-0.15,4.57-0.61,6.76-1.41c1.09-0.4,2.16-0.86,3.19-1.4c0.15-0.08,0.34-0.13,0.51-0.12
		c0.41,0.03,0.62,0.24,0.69,0.6c0.07,0.34-0.09,0.67-0.44,0.86c-0.48,0.25-0.96,0.49-1.45,0.71c-1.54,0.69-3.12,1.26-4.77,1.64
		c-1.29,0.3-2.6,0.52-3.93,0.6c-0.76,0.05-1.53,0.13-2.29,0.12c-1.29-0.02-2.57-0.13-3.85-0.31c-1.42-0.2-2.8-0.56-4.17-0.99
		c-0.68-0.21-1.34-0.49-2.01-0.74C30.08,75.51,30.02,75.49,29.88,75.44z"/>
	<path d="M25.06,29.96c-0.84-0.21-1.62-0.4-2.48-0.62c0.2-0.12,0.33-0.21,0.47-0.29c0.39-0.24,0.78-0.49,1.18-0.71
		c0.12-0.07,0.3-0.12,0.43-0.09c1.09,0.25,2.18,0.53,3.29,0.81c-0.01,0.1-0.02,0.19-0.04,0.27c-0.24,1-0.48,2.01-0.73,3.01
		c-0.03,0.14-0.07,0.26-0.21,0.34c-0.53,0.31-1.05,0.63-1.58,0.94c-0.03,0.02-0.07,0.02-0.14,0.04c0.18-0.74,0.35-1.46,0.53-2.25
		c-0.16,0.1-0.26,0.14-0.35,0.21c-1.09,0.86-2.13,1.79-3.09,2.8c-1.42,1.49-2.62,3.14-3.62,4.92c-0.6,1.06-1.13,2.15-1.54,3.29
		c-0.11,0.3-0.28,0.52-0.61,0.56c-0.62,0.08-1.02-0.39-0.86-1.01c0.04-0.17,0.11-0.34,0.18-0.5c1.09-2.61,2.48-5.04,4.31-7.2
		c0.33-0.39,0.68-0.76,1.03-1.13c1.11-1.18,2.33-2.26,3.64-3.22C24.92,30.1,24.96,30.06,25.06,29.96z"/>
	<path d="M63.45,39.03c0.32-0.83,0.62-1.58,0.94-2.4c0.3,0.68,0.57,1.29,0.83,1.9c0.03,0.08,0.02,0.2-0.01,0.29
		c-0.4,1.04-0.81,2.07-1.21,3.1c-0.01,0.02-0.03,0.04-0.07,0.09c-0.39-0.15-0.79-0.29-1.19-0.45c-0.64-0.25-1.28-0.5-1.93-0.75
		c-0.13-0.05-0.25-0.1-0.31-0.25c-0.24-0.56-0.49-1.12-0.73-1.69c-0.01-0.02,0-0.05,0-0.13c0.71,0.27,1.4,0.53,2.09,0.8
		c0.02-0.02,0.03-0.04,0.05-0.06c-0.25-0.42-0.49-0.85-0.76-1.26c-0.83-1.27-1.75-2.48-2.79-3.6c-1.78-1.93-3.83-3.52-6.11-4.83
		c-0.29-0.17-0.46-0.4-0.47-0.73c0-0.31,0.15-0.54,0.43-0.67c0.26-0.12,0.53-0.11,0.77,0.04c0.86,0.55,1.73,1.08,2.57,1.66
		c1.38,0.95,2.63,2.07,3.79,3.28c0.87,0.92,1.67,1.9,2.38,2.95c0.54,0.8,1.04,1.64,1.55,2.46C63.33,38.83,63.37,38.9,63.45,39.03z"
		/>
</g>
</svg>
