<?xml version="1.0" encoding="utf-8"?>
<!-- Generator: Adobe Illustrator 24.3.0, SVG Export Plug-In . SVG Version: 6.00 Build 0)  -->
<svg version="1.1" id="Layer_1" xmlns="http://www.w3.org/2000/svg" xmlns:xlink="http://www.w3.org/1999/xlink" x="0px" y="0px"
	 viewBox="0 0 80 80" style="enable-background:new 0 0 80 80;" xml:space="preserve">
<g>
	<path d="M13.58,65.96c0-0.17,0-0.31,0-0.44c0-20.42,0-40.84,0-61.26c0-0.55,0.19-1.01,0.69-1.28c0.17-0.09,0.39-0.14,0.59-0.14
		c3.59-0.01,7.19-0.01,10.78-0.01c8.61,0,17.23,0,25.84,0c0.38,0,0.67,0.13,0.93,0.39c5.6,5.6,11.2,11.2,16.8,16.8
		c0.3,0.3,0.39,0.68,0.39,1.08c0,5.42,0,10.84,0,16.27c0,0.25,0.09,0.39,0.28,0.56c0.38,0.32,0.73,0.69,1.04,1.09
		c0.55,0.7,1.1,1.4,1.57,2.15c0.69,1.1,1.23,2.29,1.56,3.55c0.2,0.78,0.41,1.58,0.5,2.38c0.1,0.85,0.22,1.7,0.08,2.57
		c-0.13,0.82-0.14,1.67-0.31,2.48c-0.15,0.74-0.42,1.47-0.68,2.19c-0.35,0.96-0.81,1.87-1.37,2.72c-0.72,1.09-1.56,2.08-2.5,2.99
		c-0.1,0.1-0.17,0.27-0.17,0.41c-0.01,2.18-0.01,4.36-0.01,6.55c0,1.58-0.29,3.09-0.97,4.52c-0.37,0.78-0.85,1.49-1.4,2.16
		c-0.97,1.18-2.17,2.05-3.56,2.67c-0.89,0.4-1.83,0.66-2.8,0.75c-0.37,0.03-0.74,0.06-1.1,0.06c-15.03,0-30.06,0-45.08,0
		c-1.03,0-2.01-0.26-2.98-0.62c-0.98-0.36-1.86-0.88-2.67-1.52c-0.91-0.72-1.68-1.59-2.28-2.6c-0.62-1.03-1.06-2.12-1.27-3.3
		c-0.1-0.58-0.16-1.17-0.18-1.76c-0.03-0.8,0.58-1.39,1.39-1.4c2.17-0.01,4.35,0,6.52,0C13.32,65.96,13.43,65.96,13.58,65.96z
		 M67.04,62.03c-3.42,1.77-6.97,2.4-10.72,1.52c-3.75-0.87-6.73-2.91-8.95-6.04c-1.65-2.32-2.54-4.93-2.67-7.77
		c-0.19-4.13,1.09-7.79,3.85-10.87c2.04-2.27,4.57-3.79,7.54-4.51c3.82-0.92,7.46-0.37,10.93,1.46c0-4.55,0-9.07,0-13.61
		c-0.15,0-0.27,0-0.39,0c-5.05,0-10.1-0.01-15.15,0.01c-0.68,0-1.31-0.66-1.31-1.31c0.02-5.07,0.01-10.14,0.01-15.21
		c0-0.11,0-0.22,0-0.35c-11.35,0-22.68,0-34.01,0c0,20.2,0,40.39,0,60.6c0.14,0,0.26,0,0.38,0c11.41,0,22.81,0,34.22,0
		c0.09,0,0.17-0.01,0.26,0c0.59,0.05,1.15,0.38,1.26,1.06c0.07,0.4,0.08,0.8,0.12,1.2c0.09,0.91,0.4,1.74,0.83,2.54
		c0.4,0.75,0.93,1.4,1.56,1.97c0.64,0.58,1.36,1.03,2.15,1.35c1,0.4,2.04,0.63,3.12,0.51c0.61-0.07,1.24-0.13,1.82-0.31
		c1.38-0.44,2.54-1.23,3.47-2.35c1.04-1.26,1.62-2.71,1.68-4.32C67.1,65.76,67.04,63.91,67.04,62.03z M47.24,48.65
		c0.03,3.7,1.26,6.67,3.68,9.09c2.36,2.36,5.27,3.59,8.61,3.63c3.37,0.04,6.32-1.15,8.75-3.49c2.48-2.39,3.82-5.35,3.83-8.78
		c0.03-7.1-5.51-12.3-11.85-12.58c-3.55-0.16-6.64,1.02-9.2,3.49C48.54,42.43,47.31,45.43,47.24,48.65z M8.01,68.54
		c0.01,0.11,0.01,0.21,0.03,0.3c0.41,1.67,1.26,3.08,2.61,4.16c1.36,1.1,2.95,1.64,4.68,1.64c12.46,0.02,24.92,0.01,37.38,0.01
		c0.08,0,0.16-0.01,0.28-0.02c-0.87-0.85-1.59-1.76-2.13-2.81c-0.54-1.03-0.86-2.14-1.04-3.29C35.87,68.54,21.94,68.54,8.01,68.54z
		 M65.08,19.64c-4.11-4.11-8.22-8.22-12.33-12.33c0,4.08,0,8.2,0,12.33C56.88,19.64,60.99,19.64,65.08,19.64z"/>
	<path d="M40.28,31.02c-4.91,0-9.81-0.01-14.72,0.01c-0.6,0-1.2-0.52-1.28-1.07c-0.09-0.59,0.29-1.26,0.87-1.4
		c0.2-0.05,0.4-0.11,0.6-0.11c9.73-0.01,19.46-0.01,29.18,0c0.75,0,1.21,0.34,1.41,0.97c0.22,0.71-0.31,1.57-1.12,1.59
		c-0.35,0.01-0.71,0-1.06,0C49.54,31.02,44.91,31.02,40.28,31.02z"/>
	<path d="M33.1,56.18c-2.51,0-5.03-0.01-7.54,0.01c-0.66,0.01-1.31-0.64-1.29-1.25c0.02-0.74,0.57-1.32,1.3-1.32
		c5.02,0,10.04,0,15.06,0c0.55,0,0.96,0.27,1.19,0.77c0.22,0.49,0.14,0.97-0.21,1.36c-0.23,0.27-0.55,0.43-0.94,0.43
		C38.15,56.18,35.63,56.18,33.1,56.18z"/>
	<path d="M33.09,39.83c-2.51,0-5.03-0.01-7.54,0c-0.69,0-1.17-0.49-1.27-1.08c-0.11-0.67,0.33-1.29,0.98-1.43
		c0.14-0.03,0.28-0.06,0.42-0.06c4.95,0,9.9,0,14.86,0c0.98,0,1.59,0.78,1.34,1.71c-0.12,0.44-0.6,0.86-1.18,0.86
		C38.16,39.82,35.62,39.83,33.09,39.83z"/>
	<path d="M33.1,48c-2.52,0-5.03-0.01-7.55,0c-0.7,0-1.19-0.49-1.27-1.07c-0.1-0.68,0.28-1.26,1-1.44c0.12-0.03,0.24-0.05,0.36-0.05
		c4.97,0,9.95,0,14.92,0c0.76,0,1.4,0.61,1.37,1.36c-0.03,0.61-0.56,1.21-1.23,1.21C38.17,48,35.64,48,33.1,48z"/>
	<path d="M57.71,51.61c0.07,0.38,0.09,0.74,0.2,1.07c0.24,0.72,0.85,0.97,1.53,1.1c0.59,0.12,1.14-0.02,1.61-0.36
		c0.33-0.25,0.46-0.65,0.49-1.06c0.04-0.48-0.04-0.95-0.37-1.29c-0.3-0.3-0.7-0.53-1.09-0.72c-1.02-0.47-2.12-0.79-3.06-1.44
		c-0.9-0.63-1.38-1.48-1.49-2.58c-0.08-0.79,0.05-1.52,0.39-2.23c0.39-0.81,1.06-1.31,1.86-1.63c0.46-0.18,0.95-0.27,1.46-0.41
		c0-0.58,0-1.22,0-1.87c0.5,0,0.97,0,1.48,0c0,0.65,0,1.3,0,1.95c1.08,0.15,2.02,0.56,2.7,1.39c0.64,0.77,0.82,1.72,0.84,2.73
		c-0.9,0-1.8,0-2.67,0c-0.08-0.34-0.14-0.67-0.23-0.99c-0.21-0.83-1.18-1.17-1.89-1.02c-0.98,0.21-1.17,0.69-1.25,1.57
		c-0.05,0.52,0.17,1.02,0.66,1.35c0.62,0.42,1.31,0.7,2.02,0.96c0.84,0.31,1.65,0.73,2.32,1.33c0.58,0.52,0.88,1.22,0.99,2
		c0.1,0.65,0.07,1.29-0.12,1.93c-0.24,0.82-0.74,1.43-1.46,1.86c-0.63,0.38-1.34,0.57-2.08,0.66c0,0.6,0,1.18,0,1.79
		c-0.52,0-1.02,0-1.54,0c0-0.59,0-1.18,0-1.69c-0.71-0.24-1.4-0.42-2.03-0.71c-1.03-0.47-1.63-1.31-1.85-2.42
		c-0.07-0.35-0.09-0.71-0.11-1.06c0-0.07,0.1-0.2,0.16-0.2C56.05,51.61,56.9,51.61,57.71,51.61z"/>
</g>
</svg>
