<?xml version="1.0" encoding="utf-8"?>
<!-- Generator: Adobe Illustrator 24.3.0, SVG Export Plug-In . SVG Version: 6.00 Build 0)  -->
<svg version="1.1" id="Layer_1" xmlns="http://www.w3.org/2000/svg" xmlns:xlink="http://www.w3.org/1999/xlink" x="0px" y="0px"
	 viewBox="0 0 80 80" style="enable-background:new 0 0 80 80;" xml:space="preserve">
<g>
	<path d="M13.06,53.62c3.26,0,5.92-2.66,5.92-5.92s-2.66-5.92-5.92-5.92s-5.92,2.66-5.92,5.92S9.8,53.62,13.06,53.62z M13.06,43.27
		c2.45,0,4.43,1.99,4.43,4.43s-1.99,4.43-4.43,4.43s-4.43-1.99-4.43-4.43S10.62,43.27,13.06,43.27z"/>
	<path d="M16.07,53.37h-0.2l-2.78,2.68l-2.84-2.56l-0.21-0.12l-0.17-0.01c-2.02-0.17-7.46,0.4-8.26,5.14l0,11.23h22.81V58.54
		c0-0.14-0.03-1.42-1.12-2.69C21.92,54.2,19.52,53.37,16.07,53.37z M3.1,58.65c0.64-3.66,5.13-3.83,6.42-3.82l3.6,3.25l3.34-3.22
		c6.38,0.1,6.48,3.54,6.48,3.68v9.7H3.1L3.1,58.65z"/>
	<path d="M46.06,60.79h-4.26v-5.97h2.9l-5.22-8.59l-4.89,8.59h2.74v5.97h-4.04v-3.12l-7.67,5.47l7.61,5.28v-2.78h12.61v2.63
		l8.17-4.6l-7.95-6.05V60.79z M47.54,62.27v-1.66l3.77,2.87l-3.99,2.25v-1.57H31.74v1.42l-3.55-2.46l3.6-2.57v1.72h7.01v-8.93h-1.68
		l2.38-4.18l2.54,4.18h-1.74v8.93H47.54z"/>
	<path d="M39.53,22.11c3.26,0,5.92-2.65,5.92-5.92s-2.66-5.92-5.92-5.92s-5.92,2.65-5.92,5.92S36.26,22.11,39.53,22.11z
		 M39.53,11.76c2.45,0,4.43,1.99,4.43,4.43s-1.99,4.43-4.43,4.43s-4.43-1.99-4.43-4.43S37.08,11.76,39.53,11.76z"/>
	<path d="M50.89,27.03c0-0.14-0.03-1.41-1.12-2.69c-1.39-1.64-3.8-2.47-7.24-2.47h-0.2l-2.78,2.68l-2.84-2.56l-0.21-0.12l-0.17-0.01
		c-0.3-0.02-7.31-0.39-8.24,5.14l0,11.23h22.81V27.03z M29.56,27.14c0.64-3.71,5.31-3.84,6.42-3.82l3.6,3.25l3.34-3.22
		c6.38,0.1,6.48,3.53,6.48,3.68v9.7H29.57L29.56,27.14z"/>
	<path d="M67.01,53.62c3.26,0,5.92-2.66,5.92-5.92s-2.66-5.92-5.92-5.92s-5.92,2.66-5.92,5.92S63.75,53.62,67.01,53.62z
		 M67.01,52.14c-2.45,0-4.43-1.99-4.43-4.43s1.99-4.43,4.43-4.43s4.43,1.99,4.43,4.43S69.46,52.14,67.01,52.14z"/>
	<path d="M77.26,55.85c-1.39-1.64-3.8-2.47-7.24-2.47h-0.2l-2.78,2.68l-2.84-2.56L64,53.37l-0.17-0.01
		c-2.53-0.18-7.49,0.65-8.25,5.14l0,11.23h22.81V58.54C78.38,58.4,78.35,57.12,77.26,55.85z M57.05,58.65
		c0.64-3.7,5.31-3.84,6.42-3.82l3.6,3.25l3.34-3.22c6.38,0.1,6.48,3.54,6.48,3.68v9.7H57.06L57.05,58.65z"/>
</g>
</svg>
